<?xml version="1.0" standalone="no"?>
<!DOCTYPE svg PUBLIC "-//W3C//DTD SVG 1.1//EN" "http://www.w3.org/Graphics/SVG/1.1/DTD/svg11.dtd" >
<!--
2013-9-30: Created.
-->
<svg>
<metadata>
Created by iconfont
</metadata>
<defs>

<font id="iconfont" horiz-adv-x="1024" >
  <font-face
    font-family="iconfont"
    font-weight="500"
    font-stretch="normal"
    units-per-em="1024"
    ascent="896"
    descent="-128"
  />
    <missing-glyph />
    
    <glyph glyph-name="dizhi" unicode="&#58954;" d="M511.970836 747.596178c-185.303356 0-335.666946-158.832472-335.666946-355.199815 0-75.074859 22.153556-144.903228 59.798944-202.216561 1.833765-3.304256 3.499707-6.557346 5.739724-9.453303l228.604558-304.71705c11.42112-15.954367 26.498514-23.603581 41.578977-23.603581s30.106692 7.650237 41.526789 23.603581l228.687446 304.71705c2.101871 2.895957 3.823072 6.066159 5.489014 9.070586 37.756929 57.534368 59.966767 127.19696 59.966767 202.544019C847.56001 588.763706 697.386756 747.596178 511.970836 747.596178L511.970836 747.596178 511.970836 747.596178 511.970836 747.596178zM732.544487 230.526719l-1.690502-2.703575-1.474584-2.731204-1.121544-1.968841L511.970836-65.254821 295.659255 223.124122l-1.339508 2.459005-1.474584 2.787486-1.613754 2.212388c-31.333636 47.671743-47.806819 103.785761-47.806819 161.813363 0 156.861584 120.369462 284.199761 268.49201 284.199761 148.124596 0 268.494057-127.338177 268.494057-284.199761C780.410658 334.425044 763.909845 278.201531 732.544487 230.526719L732.544487 230.526719 732.544487 230.526719 732.544487 230.526719zM511.970836 534.480382c-74.170257 0-134.299729-63.708997-134.299729-142.139278 0-78.407768 60.129472-142.142347 134.299729-142.142347 74.199932 0 134.274146 63.73458 134.274146 142.142347C646.243959 470.771385 586.114486 534.480382 511.970836 534.480382L511.970836 534.480382 511.970836 534.480382 511.970836 534.480382zM511.970836 321.200858c-36.988426 0-67.178005 31.856545-67.178005 71.140247s30.105668 71.000054 67.178005 71.000054c37.045731 0 67.152423-31.716352 67.152423-71.000054C579.066977 353.108568 548.961308 321.200858 511.970836 321.200858L511.970836 321.200858 511.970836 321.200858 511.970836 321.200858zM511.970836 321.200858"  horiz-adv-x="1024" />

    
    <glyph glyph-name="duihuakuang" unicode="&#58880;" d="M2203.648 666.624 483.328 666.624c-27.144192 0-49.152-22.007808-49.152-49.152l0-364.544c0-27.144192 22.007808-49.152 49.152-49.152l667.348992 0 192.729088-152.915968L1536.290816 203.776 2203.648 203.776c27.144192 0 49.152 22.007808 49.152 49.152L2252.8 617.472C2252.8 644.616192 2230.792192 666.624 2203.648 666.624z"  horiz-adv-x="2622" />

    
    <glyph glyph-name="daifahuo-copy" unicode="&#58934;" d="M111.551 450.422h160.455v-64.182h-160.455v64.182zM930.783 803.422h-834.638c-53.336 0-96.145-43.225-96.145-96.529v-657.993c0-53.432 43.033-96.529 96.145-96.529h834.638c53.336 0 96.145 43.225 96.145 96.529l0 657.993c0 53.432-43.033 96.529-96.145 96.529zM385.108 739.24h256.728v-435.612c-36.97 33.179-83.571 74.932-107.087 95.729l-21.469 19.037-21.309-19.229c-23.98-21.629-70.213-62.998-106.863-95.761 0 0.016 0 435.836 0 435.836zM64.182 691.264c0 26.508 21.309 47.977 48.296 47.977h208.431v-160.455h-256.728v112.478zM962.746 64.546c0-26.508-21.341-47.977-48.296-47.977l-801.971-0c-26.668 0-48.296 21.501-48.296 47.977l0 450.058h256.728v-354.649l53.464 47.753c0 0 87.314 78.020 139.178 124.573 51.352-45.801 138.89-124.477 138.89-124.509l53.56-48.072 0 354.905h256.728l0.016-450.058zM962.746 578.786h-256.728v160.455h208.399c26.7 0 48.328-21.501 48.328-47.977l0-112.478z"  horiz-adv-x="1027" />

    
    <glyph glyph-name="kefu" unicode="&#58923;" d="M894.719 540.801C879.996 739.521 714.234 896 512 896 309.76 896 143.996 739.521 128.959 540.801 55.678 526.4 0 461.764 0 383.998L0 320c0-88.324 71.68-160.004 160-160.004l96 0L256 320l0 63.998 0 160-62.402 0C209.6 705.6 345.916 832.004 512 832.004c166.047 0 302.402-126.404 318.402-288.006l-62.41 0 0-160L767.992 320l0-160.004 62.41 0c-29.121-131.199-146.238-229.439-286.404-229.439-22.08 0-43.521 2.564-64 7.045l0-59.84c20.803-3.811 42.246-5.76 64-5.76 173.439 0 317.443 125.439 346.564 290.244 3.48 20.154 5.434 40.641 5.434 61.75l-16 0-42.559 0-5.434 0L832.003 330.561l0 42.881L832.003 480l47.992 0c44.16 0 80-47.682 80-106.559l0-42.881c0-58.879-35.84-106.564-80-106.564l16 0c0-21.109-1.953-41.596-5.434-61.75 75.836 12.824 133.434 78.395 133.434 157.754l0 63.998C1023.996 461.764 968.316 526.4 894.719 540.801L894.719 540.801zM143.996 480 192 480l0-106.559 0-42.881 0-106.564-48.004 0c-44.162 0-80.002 47.686-80.002 106.564l0 42.881C63.994 432.318 99.84 480 143.996 480L143.996 480z"  horiz-adv-x="1024" />

    
    <glyph glyph-name="fenlei" unicode="&#58983;" d="M95.137801 596.726939l78.06496 0 0 78.069053-78.06496 0L95.137801 596.726939zM270.781146 674.795992l0-78.069053 663.534252 0 0 78.069053L270.781146 674.795992zM95.137801 362.543316l78.06496 0 0 78.05882-78.06496 0L95.137801 362.543316zM270.781146 362.543316l663.534252 0 0 78.05882L270.781146 440.602136 270.781146 362.543316zM95.137801 128.350482l78.06496 0 0 78.069053-78.06496 0L95.137801 128.350482zM270.781146 128.350482l663.534252 0 0 78.069053L270.781146 206.419536 270.781146 128.350482z"  horiz-adv-x="1024" />

    
    <glyph glyph-name="sousuo" unicode="&#59111;" d="M925.452543-63.472358c-7.116071-0.001023-14.610766 2.433422-21.473057 8.200776-0.923022 0.776689-2.025123 1.749854-3.464915 3.063779-2.284019 2.084475-5.449106 5.051039-9.676383 9.066493-7.540743 7.167237-18.521842 17.743106-32.638351 31.434943-23.681352 22.971178-56.582693 55.091736-97.789187 95.470375-47.434336 46.482661-95.205339 93.454462-121.370255 119.199823-46.986127-35.420721-123.625622-78.831416-216.971613-78.831416-48.103578 0-94.788853 9.335622-138.758274 27.745924-42.473347 17.785062-80.618109 43.243897-113.373117 75.6694-32.776498 32.448016-58.516742 70.247924-76.505441 112.351857-18.640546 43.62866-28.091802 89.959871-28.091802 137.703245s9.451256 94.074585 28.091802 137.703245c17.9887 42.103934 43.728944 79.903841 76.505441 112.351857 32.755008 32.426527 70.898747 57.885362 113.373117 75.670423 43.969421 18.410302 90.654696 27.745924 138.758274 27.745924s94.788853-9.335622 138.758274-27.745924c42.47437-17.785062 80.618109-43.243897 113.373117-75.670423 32.776498-32.448016 58.517765-70.247924 76.506465-112.351857 18.640546-43.62866 28.091802-89.959871 28.091802-137.703245 0-84.216054-32.461319-165.108408-92.074022-230.962256 26.76662-25.963325 73.072249-70.904886 118.991068-115.583458 41.274032-40.158628 74.16821-72.253604 97.766674-95.39465 14.052041-13.779841 24.942065-24.5133 32.366152-31.905664 4.129041-4.112668 7.189749-7.190773 9.357112-9.414417 4.846378-4.971222 12.170181-12.485359 12.271488-25.544793l0.105401-13.392008-9.473769-9.479909C942.402587-59.779246 934.215114-63.471334 925.452543-63.472358zM422.068781 767.117654c-161.434739 0-292.771997-129.875976-292.771997-289.514813s131.337257-289.514813 292.771997-289.514813c87.643106 0 159.004387 48.65821 195.361433 79.435167l2.085498 1.948375c61.471027 57.413618 95.325066 131.330094 95.325066 208.131271C714.840778 637.241678 583.504544 767.117654 422.068781 767.117654z"  horiz-adv-x="1024" />

    
    <glyph glyph-name="yiwancheng" unicode="&#59343;" d="M783.39513 843.807291c-2.104941 0-4.118807-0.125867-6.130627-0.220011H246.606561c-2.01182 0.094144-4.022617 0.220011-6.130628 0.220011-73.720002 0-133.60695-71.853491-133.60695-145.465023l0.220011-14.128789h-0.313132v-617.284905h0.313132l-0.094145-13.44215v-1.223874c0-72.730465 59.227939-127.754662 132.131343-127.754662 2.230808 0 4.464685 0.125867 6.695493 0.22001h528.238846l0.659009-0.094144c2.891863-0.345877 6.004761-0.438998 9.242502-0.438998 72.903403 0 132.129296 54.898331 132.129296 127.502929v1.789763l-0.094144 13.44215h0.881067V690.114886c0.220011 2.670829 0.345877 5.338588 0.345877 8.009418 0 73.733305-60.014862 145.682987-133.829008 145.682987z m-334.569961-692.963515L271.663236 328.003662l73.81824 73.818239 103.343693-103.343693 221.449601 221.449601 73.816192-73.818239-295.265793-295.265794z m397.10011 520.909927H177.822988v30.04427l0.533143 1.382487c0.409322 1.130753 0.629333 2.261507 0.629333 3.233647 0 32.251541 34.267455 50.538023 76.518744 50.538023 0.220011 0 0.659009 0.094144 1.068332 0.094145l0.629333 0.094144h508.589321l0.849344-0.094144c0.535189-0.094144 1.162476-0.094144 1.697665-0.094145 42.25129 0 76.644611-18.286482 76.644611-50.600444 0-0.910743 0.187265-1.789763 0.533142-2.76395l0.409323-1.223875v-30.610158z"  horiz-adv-x="1024" />

    
    <glyph glyph-name="sousuo1" unicode="&#58985;" d="M885.248 66.048c7.04-7.936 10.496-16.896 10.496-26.496 0-10.88-3.968-20.096-11.904-27.904-7.552-7.552-17.92-11.776-28.672-11.52-4.608 0-9.216 0.768-13.696 2.176-4.352 1.408-8.32 3.584-11.904 6.4l-4.352 3.456-217.6 213.248c-52.224-35.968-110.72-54.016-175.36-54.016-6.528 0-13.056 0.256-19.84 0.768-6.656 0.512-13.312 1.408-19.84 2.56-44.8 4.992-87.68 20.224-125.184 44.544-41.088 25.728-73.984 59.648-98.688 102.016-11.904 19.712-21.12 40.704-27.776 62.592-6.656 22.016-10.88 44.8-12.288 67.712-1.408 22.912-0.128 45.952 3.968 68.608 5.888 36.608 19.072 71.68 38.784 103.296 19.584 31.872 45.312 59.648 75.776 81.92 25.856 19.968 54.784 35.456 86.784 46.336 31.616 10.752 64.768 16.256 98.304 16.256 14.08 0 27.648-0.896 40.576-2.56 34.688-4.608 67.84-14.848 99.584-30.848 31.232-15.616 59.264-36.48 82.816-61.696 27.648-28.032 48.64-61.184 62.976-99.456 14.336-38.272 20.736-77.184 18.944-116.608-2.304-65.792-25.6-124.928-69.632-177.408l218.496-213.376h-0.768z m-193.792 391.68c1.92 35.072-4.096 70.272-17.664 102.784-7.68 20.096-18.048 39.168-30.848 56.576-12.928 17.664-28.032 33.536-45.312 47.616-17.024 13.824-35.84 25.472-55.936 34.688-42.88 19.328-90.496 26.752-137.472 21.376-2.688 0-5.376-0.256-7.936-0.896l-5.248-0.896c-37.504-5.632-73.216-19.584-104.448-40.704-31.36-20.736-57.344-48.128-76.16-80.128-21.76-34.816-33.664-73.728-35.712-116.608-2.048-42.88 6.016-82.56 24.192-119.168 15.232-33.152 38.016-62.464 66.56-85.76 28.288-23.552 61.568-40.832 97.408-50.56 37.632-10.24 75.52-12.288 113.664-6.016 19.968 3.456 39.552 9.216 58.24 17.152 18.56 7.936 36.096 17.792 52.48 29.568 16.256 11.776 30.976 25.344 44.032 40.32 13.184 15.104 24.192 31.616 33.024 49.28 16.256 31.616 25.472 66.176 27.136 101.376z"  horiz-adv-x="1024" />

    
    <glyph glyph-name="daifahuo" unicode="&#58956;" d="M155.2-52.8c-55.2 0-99.2 44-99.2 98.4V723.2c0 54.4 44.8 98.4 99.2 98.4h803.2c55.2 0 99.2-44 99.2-98.4v-678.4c0-54.4-44.8-97.6-99.2-97.6H155.2z m-53.6 103.2c0-32 26.4-58.4 59.2-58.4h792c32.8 0 59.2 26.4 59.2 58.4V476l-294.4 0.8v-237.6l-0.8-2.4v-3.2c0-4-0.8-8.8-3.2-12-4-7.2-12.8-11.2-21.6-11.2-4 0-8 0.8-12 3.2l-109.6 65.6-111.2-60.8-5.6-1.6c-2.4-0.8-4.8-1.6-7.2-1.6-12.8 0-24 11.2-24 24V476.8l-322.4 0.8v-427.2z m568 225.6V776H472.8v-497.6l92 50.4h5.6c2.4 0 5.6-0.8 8-1.6l4.8-1.6 86.4-49.6zM160.8 776c-32.8 0-59.2-26.4-59.2-58.4v-193.6l322.4-0.8V776H160.8z m557.6-252l294.4-0.8V717.6c0 32-26.4 58.4-59.2 58.4H718.4v-252z"  horiz-adv-x="1113" />

    
    <glyph glyph-name="sousuo2" unicode="&#58964;" d="M621.181263 192.097635a388.176801 388.176801 0 0 0-231.257682-75.944798C174.577665 116.152837 0 290.730502 0 506.06638 0 721.422335 174.577665 896 389.923581 896c215.355955 0 389.923581-174.577665 389.923582-389.923581 0-86.576066-28.209502-166.556529-75.944798-231.257682L1020.963112-42.262088a10.038969 10.038969 0 0 0 0.120467-14.215179l-68.61635-68.616351a9.998813 9.998813 0 0 0-14.21518 0.120467L621.181263 192.097635z m-231.257682 2.037911c172.278741 0 311.940873 139.662132 311.940873 311.940873 0 172.268702-139.662132 311.940873-311.940873 311.940873-172.268702 0-311.940873-139.662132-311.940873-311.940873S217.64484 194.135546 389.923581 194.135546z"  horiz-adv-x="1044" />

    
    <glyph glyph-name="kaiguanguan" unicode="&#59319;" d="M309.76 76.288h404.48c169.984 0 307.712 137.728 307.712 307.712s-137.728 307.712-307.712 307.712h-404.48C139.776 691.712 2.048 553.984 2.048 384s137.728-307.712 307.712-307.712z m-0.512 586.24c154.112 0 279.04-124.928 279.04-279.04s-124.928-279.04-279.04-279.04-279.04 124.928-279.04 279.04 124.928 279.04 279.04 279.04z"  horiz-adv-x="1024" />

    
    <glyph glyph-name="kefu1" unicode="&#58996;" d="M509.050986 895.97152c9.540849-0.911365 19.138659-1.765769 28.707989-2.791055 63.65313-6.806755 123.489919-25.916934 178.570524-58.583663 108.05368-64.051852 178.940767-156.783212 212.148619-277.994719 10.081972-36.881791 14.781197-74.589506 14.895117-112.809865 0.170881-38.56212 0.02848-77.067279 0.05696-115.629398 0-18.455136-4.328982-35.828026-12.246463-52.545872-3.104336-6.635874-4.528343-14.040713-6.607394-21.16075-47.163124-160.029949-180.763496-282.523063-344.666745-315.901796-11.278138-2.306892-22.698678-4.072661-34.119217-5.553629-3.93026-0.512643-5.154907-2.420813-6.351073-5.610589a85.326522 85.326522 0 0 0-84.642998-54.995164c-36.340668 1.822729-68.209953 27.825104-77.608402 63.396808a85.298042 85.298042 0 0 0 52.944594 101.873487 85.070201 85.070201 0 0 0 106.344871-43.175903c2.02209-4.215062 4.186582-5.240347 8.515564-4.528344 137.729993 23.0974 238.179473 96.889462 301.861083 221.005945 0.569603 1.082246 1.025285 2.192971 1.85121 3.95874-4.499863-0.484163-8.373163-0.996805-12.246464-1.224646a113.835149 113.835149 0 0 0-120.727345 113.578828c-0.08544 37.793156-0.05696 75.500871 0 113.265547a113.407947 113.407947 0 0 0 120.271663 113.835149c10.879416-0.598083 21.616432-4.186582 32.381928-6.436513 1.025285-0.199361 2.02209-0.626563 3.189776-0.996805-35.457784 142.002015-174.213062 287.051406-373.374733 291.921511C293.826512 843.85285 143.764614 699.657863 104.718332 547.488435c7.860521 1.87969 15.721041 4.215062 23.695483 5.69603 59.466548 10.993337 120.300143-31.641444 130.125794-91.278873 1.253126-7.63268 1.87969-15.40776 1.93665-23.097399 0.199361-36.967231 0.170881-73.934463 0.05696-110.901695-0.170881-54.938204-37.166592-100.44948-90.85167-112.06938-61.88736-13.357189-124.515205 29.135191-134.881979 91.620634a122.350714 122.350714 0 0 0-1.794249 19.30954c-0.142401 39.815246-0.882885 79.630492 0.08544 119.417259 3.702419 145.732915 62.912646 264.295769 177.061077 354.862637 58.327342 46.28024 125.084808 74.988228 198.421188 87.889735 17.686172 3.075856 35.714105 4.186582 53.599637 6.237153 1.708809 0.199361 3.417618 0.541123 5.097947 0.797444h41.780376zM203.658365 383.699107v56.362212c-0.08544 32.438888-25.204931 57.90014-57.017256 57.84318-31.584484-0.02848-56.703974-25.432772-56.789414-57.558378-0.05696-37.422914-0.05696-74.845828 0.02848-112.297222 0-4.385943 0.427202-8.885806 1.367048-13.129348 6.436513-28.223826 33.008491-47.419446 61.032956-44.286629 29.505433 3.332177 51.178825 27.170061 51.321225 56.675493 0.142401 18.796897 0.05696 37.593795 0.056961 56.390692zM772.691711 384.15479c0-18.597536-0.08544-37.252033 0.05696-55.87805 0.02848-4.528343 0.427202-9.199088 1.452488-13.61351 6.550434-28.223826 33.350253-47.362485 61.203837-44.001828 29.619353 3.588499 51.007944 27.283981 51.093384 56.903335a21439.570217 21439.570217 0 0 1-0.05696 113.237066 58.384302 58.384302 0 0 1-1.509448 13.129348c-6.635874 27.967505-33.093931 46.906803-60.919035 43.745506-29.533913-3.332177-51.178825-27.141581-51.349706-56.647013-0.05696-18.967778 0.02848-37.907076 0.02848-56.874854z"  horiz-adv-x="1259" />

    
    <glyph glyph-name="lingdangcopy" unicode="&#58917;" d="M424.16-14.58h200.887v-2.018c0-56.503-53.233-102.461-118.677-102.461-65.46 0-118.692 45.958-118.692 102.461v2.017h36.482z m71.221 801.883c-0.382-26.899-0.413-67.981-0.413-67.981l-56.595-12.9a320.164 320.164 0 0 1-38.331-11.279c-33.578-12.257-63.427-29.62-88.981-51.674-24.928-21.504-44.2-46.171-57.558-73.453-13.572-27.693-20.358-56.671-20.358-86.596v-235.474c0-39.585-20.357-75.547-53.553-97.83l-71.329-47.869c1.681-0.428 3.577-0.657 5.7-0.657H909.17c2.094 0 3.989 0.23 5.655 0.642l-71.222 47.822c-33.242 22.299-53.584 58.23-53.584 97.83V483.39c0 29.987-6.786 58.934-20.343 86.612-13.342 27.25-32.615 51.934-57.588 73.499-25.447 21.978-55.296 39.355-88.95 51.628a318.754 318.754 0 0 1-38.316 11.28l-56.596 12.914v67.981h-32.86z m389.7-572.89l76.082-51.077c14.627-9.812 24.852-23.079 29.559-38.316 4.28-13.908 3.683-28.504-1.788-42.229-5.441-13.694-15.345-25.57-28.611-34.266-14.58-9.521-32.096-14.565-50.62-14.565H114.5c-18.554 0-36.054 5.059-50.62 14.596-13.266 8.696-23.185 20.556-28.61 34.266a62.892 62.892 0 0 0-1.773 42.213c4.707 15.284 14.947 28.534 29.558 38.362l76.097 51.078c13.68 9.185 21.55 23.078 21.55 38.056V488.005c0 40.914 9.323 80.651 27.663 118.096 17.699 36.146 43.008 68.577 75.272 96.409 32.279 27.831 69.815 49.702 111.677 64.986a399.066 399.066 0 0 0 47.211 13.908V814.477c0 42.642 40.196 77.335 89.608 77.335 49.381 0 89.562-34.693 89.607-77.335v-33.104c16.048-3.653 31.897-8.314 47.196-13.908 41.877-15.268 79.444-37.124 111.677-64.97 32.249-27.847 57.574-60.279 75.257-96.41 18.355-37.444 27.663-77.166 27.663-118.11v-235.49c0-14.978 7.825-28.87 21.55-38.056z m-389.685 572.89H480.8v19.96c0 12.747 11.998 23.094 26.777 23.094 14.734 0 26.747-10.378 26.747-23.078v-19.976h-6.083V809.831c0 0.428-5.487 5.166-16.644 5.166-6.526 0-12.044-2.017-15.36-4.89-0.397-0.337-0.657-9.935-0.84-22.804z m12.181 43.054c-14.779 0-26.777-10.347-26.777-23.078v-19.976h53.524v19.96c0 12.716-12.013 23.094-26.747 23.094zM424.16-14.581h36.481v-2.017c0-14.244 18.524-30.23 45.729-30.23 27.19 0 45.698 15.986 45.698 30.23v2.017h72.979v-2.017c0-27.144-12.288-51.857-32.31-70.213h-172.75c-20.021 18.356-32.31 43.07-32.31 70.213v2.017h36.483zM443.142 758.448c-0.566 16.888 12.593 30.567 29.436 30.567h53.86c16.811 0 30.933-13.801 31.483-30.567l0.367-10.454c0.566-16.873-12.593-30.567-29.436-30.567h-53.86c-16.811 0-30.933 13.816-31.483 30.567l-0.383 10.454z"  horiz-adv-x="1024" />

    
    <glyph glyph-name="shengjiang" unicode="&#58900;" d="M512-128l354.463289 472.610133H157.536711z m0 1024L157.536711 423.378489h708.926578z"  horiz-adv-x="1024" />

    
    <glyph glyph-name="bianji" unicode="&#58896;" d="M714.6 25.8H253.8c-42.3 0-76.8 34.5-76.8 76.8v512c0 42.3 34.5 76.8 76.8 76.8h358.4c14.2 0 25.6-11.5 25.6-25.6 0-14.1-11.4-25.6-25.6-25.6H253.8c-14.1 0-25.6-11.5-25.6-25.6v-512c0-14.1 11.5-25.6 25.6-25.6h460.8c14.1 0 25.6 11.5 25.6 25.6V512.2c0 14.1 11.4 25.6 25.6 25.6s25.6-11.5 25.6-25.6v-409.6c0-42.4-34.5-76.8-76.8-76.8zM564.2 435.4c-6.6 0-13.1 2.5-18.1 7.5-10 10-10 26.2 0 36.2l254.4 254.4c10 10 26.2 10 36.2 0 10-10 10-26.2 0-36.2L582.3 442.9c-5-5-11.5-7.5-18.1-7.5z m-105.6 0H305c-14.1 0-25.6 11.5-25.6 25.6 0 14.1 11.5 25.6 25.6 25.6h153.6c14.1 0 25.6-11.5 25.6-25.6 0-14.2-11.5-25.6-25.6-25.6z m153.6-153.6H305c-14.1 0-25.6 11.4-25.6 25.6 0 14.2 11.5 25.6 25.6 25.6h307.2c14.2 0 25.6-11.4 25.6-25.6 0-14.2-11.4-25.6-25.6-25.6z"  horiz-adv-x="1024" />

    
    <glyph glyph-name="duihuakuang1" unicode="&#58907;" d="M1233.329493 721.578667h-1112.064c-34.128213 0-61.781333-27.661653-61.781333-61.781334v-473.658026c0-34.117973 27.65312-61.781333 61.781333-61.781334h472.80128l83.23072-144.155306 83.23072 144.155306h472.80128c34.128213 0 61.781333 27.66336 61.781334 61.781334V659.797333c0 34.117973-27.65312 61.781333-61.781334 61.781334z"  horiz-adv-x="1365" />

    
    <glyph glyph-name="kefu2" unicode="&#58931;" d="M864.2 287.5c0 55.4-40.6 101.4-93.6 109.9v54.7c-0.2 73.4-28.1 142.5-78.4 194.5-50.7 52.4-118.2 81.3-190 81.3s-139.3-28.9-190-81.3c-49.3-50.9-76.9-118.1-78.3-189.8 0-0.4-0.1-0.9-0.1-1.3v-58c-53.1-8.4-93.9-54.5-93.9-110 0-61.4 49.9-111.3 111.3-111.3h0.6c9.9 0 18 7.8 18 19.5V452c0.4 132.4 104.5 239.9 232.4 239.9 128.2 0 232.4-108 232.4-240.7V142c0.1-5.8-2.2-11.3-6.3-15.5-4.1-4.2-9.6-6.5-15.5-6.5H656v-0.1h-42.6v9.4c0 16-13 29-29 29h-88.8c-16 0-29-13-29-29v-17.4c0-15.9 13-29 29-29h88.8c2.6 0 5.1 0.4 7.5 1h122.7v0.1c14.9 0.4 28.7 6.5 39.3 17.1 10.9 11 16.9 25.6 16.7 41.1v35.4c53 8.5 93.6 54.5 93.6 109.9z m-688.3 0c0 35.5 24.8 65.4 57.9 73.3v-146.6c-33.2 7.9-57.9 37.7-57.9 73.3z m594.7-73.2V360.7c33-8 57.6-37.8 57.6-73.2s-24.6-65.2-57.6-73.2z"  horiz-adv-x="1024" />

    
    <glyph glyph-name="gouwuche" unicode="&#58881;" d="M347.136 112.63999999999999q19.456 0 36.864-7.168t30.72-19.968 20.48-30.208 7.168-36.864-7.168-36.864-20.48-30.208-30.72-20.48-36.864-7.68q-20.48 0-37.376 7.68t-30.208 20.48-20.48 30.208-7.168 36.864 7.168 36.864 20.48 30.208 30.208 19.968 37.376 7.168zM773.12 110.59199999999998q19.456 0 37.376-7.168t30.72-19.968 20.48-30.208 7.68-36.864-7.68-36.864-20.48-30.208-30.72-20.48-37.376-7.68-36.864 7.68-30.208 20.48-20.48 30.208-7.68 36.864 7.68 36.864 20.48 30.208 30.208 19.968 36.864 7.168zM945.152 692.2239999999999q28.672 0 44.544-7.68t22.528-18.944 6.144-24.064-3.584-22.016-12.8-37.888-22.016-62.976-24.064-68.096-17.92-53.248q-13.312-40.96-33.792-56.832t-50.176-15.872l-34.816 0-66.56 0-87.04 0-95.232 0-253.952 0 15.36-92.16 516.096 0q49.152 0 49.152-41.984 0-20.48-9.728-35.328t-38.4-14.848l-49.152 0-95.232 0-117.76 0-119.808 0-98.304 0-56.32 0q-20.48 0-34.304 9.216t-23.04 24.064-14.848 32.256-8.704 32.768q-1.024 6.144-5.632 29.696t-11.264 58.88-14.848 78.848-16.384 87.552q-19.456 103.424-44.032 230.4l-76.8 0q-15.36 0-25.6 7.68t-16.896 18.432-9.216 23.04-2.56 22.528q0 20.48 13.824 33.792t37.376 13.312l22.528 0 20.48 0 25.6 0 34.816 0q20.48 0 32.768-6.144t19.456-15.36 10.24-19.456 5.12-17.408q2.048-8.192 4.096-23.04t4.096-30.208q3.072-18.432 6.144-38.912l700.416 0z"  horiz-adv-x="1024" />

    
    <glyph glyph-name="dizhi1" unicode="&#58914;" d="M795.5 238.1c-67.3-89.4-140.1-178.2-203-254.4-26-31.3-53.3-47.2-81.2-47.2-29 0-57.5 17.1-84.5 50.9-14.4 18-29 36.2-43.1 53.8-48.2 59.9-98 121.9-145.3 184.2-53.1 70.1-78 140.9-76 216.6-1.1 74.7 20.3 146.4 61.9 207.1 41.6 60.8 99.5 105.1 167.4 128C432.7 791 474.2 798 514.9 798c55.1 0 107.5-12.7 155.6-37.6 48.7-25.3 91-62.1 125.8-109.4 42.5-57.8 65.9-131.1 66-206.3 0-75.8-23.7-149.2-66.8-206.6z m-48.7 392.8C690.9 703.3 603 746.5 511.7 746.5c-32.7 0-64.9-5.4-95.9-16-122.7-42.2-202-155.5-202-288.6v-0.4c-6.8-67.4 25.4-127.4 53.7-165.9 54.3-74.2 113.1-147 170-217.4 12.5-15.5 25.1-31.1 37.6-46.6 11.4-14.3 23.6-21.5 36-21.6 13.5 0 27.8 8.8 41.3 25.4 17.5 21.8 35.6 43.9 53 65.3 50 61.2 101.7 124.4 147.8 189.8 80.1 113.5 77.6 251.7-6.4 360.4zM512 290.1h-2.1c-41.9 0.7-80.3 16.9-108.1 45.7-27.8 28.8-43.2 68.1-43.2 110.8 0 86.9 63 152.8 146.5 153.2h0.9c91.4 0 160.7-65.1 161.2-151.4 0.3-42.4-16-82.3-45.7-112.3-29.3-29.7-68.2-46-109.5-46z m74.5 227.8c-18.6 19.3-44.9 30.1-74.1 30.5h-1.3c-55.7 0-98.9-42.7-100.5-99.3-0.8-28.8 9.4-55.6 28.5-75.5 19-19.7 44.9-30.6 73-30.8h0.6c55.9 0 100.6 44.1 101.6 100.5 0.6 28.9-9.3 55.4-27.8 74.6z"  horiz-adv-x="1024" />

    
    <glyph glyph-name="tongxinyuan" unicode="&#58882;" d="M511.808 863.4432C248.7872 863.4432 35.5712 650.2272 35.5712 387.2064c0-263.0208 213.216-476.2368 476.2368-476.2368 263.0208 0 476.2368 213.216 476.2368 476.2368C988.0448 650.2272 774.8096 863.4432 511.808 863.4432z m0-898.7904c-233.3568 0-422.5344 189.1776-422.5344 422.5344 0 233.3568 189.1776 422.5344 422.5344 422.5344 233.376 0 422.5344-189.1968 422.5344-422.5344 0-233.3568-189.1584-422.5344-422.5344-422.5344zM311.5712 387.2064c0-110.5728 89.6448-200.2368 200.2368-200.2368 110.5728 0 200.2368 89.664 200.2368 200.2368 0 110.592-89.664 200.2368-200.2368 200.2368-110.592 0-200.2368-89.664-200.2368-200.2368z"  horiz-adv-x="1024" />

    
    <glyph glyph-name="yuanxing" unicode="&#58921;" d="M512.5 758.4c-211.6 0-383.7-172.1-383.7-383.7S300.9-9 512.5-9s383.7 172.1 383.7 383.7-172.1 383.7-383.7 383.7z m0-735.4c-193.9 0-351.7 157.8-351.7 351.7s157.8 351.7 351.7 351.7 351.7-157.8 351.7-351.7S706.4 23 512.5 23z"  horiz-adv-x="1024" />

    
    <glyph glyph-name="gengduo" unicode="&#58997;" d="M650.093517 394.459414L409.96586 154.331757a26.111963 26.111963 0 1 1 36.93709-36.93709L705.462581 375.954297a26.03882 26.03882 0 0 1 0 36.93709L446.90295 671.524161a26.111963 26.111963 0 1 1-36.93709-36.93709l240.127657-240.127657zM983.770755 583.314001a510.316985 510.316985 0 0 1-109.714129 162.742625A510.243843 510.243843 0 0 1 512 895.999269a510.097557 510.097557 0 0 1-362.056626-149.942643A510.1707 510.1707 0 0 1 0.000731 384a510.1707 510.1707 0 0 1 149.942643-362.056626A510.243843 510.243843 0 0 1 512-127.999269a510.243843 510.243843 0 0 1 362.056626 149.942643A510.316985 510.316985 0 0 1 1023.999269 384c0 69.119901-13.531409 136.191805-40.228514 199.314001z m-43.666224-380.196028a463.13991 463.13991 0 0 0-99.547286-147.675218A462.993624 462.993624 0 0 0 512-80.602765a463.13991 463.13991 0 0 0-328.557245 136.04552A462.993624 462.993624 0 0 0 47.397235 384a463.13991 463.13991 0 0 0 136.04552 328.557245A462.993624 462.993624 0 0 0 512 848.602765a463.066767 463.066767 0 0 0 328.557245-136.04552A463.066767 463.066767 0 0 0 976.602765 384c0-62.756482-12.21484-123.611252-36.498234-180.882027z"  horiz-adv-x="1024" />

    
    <glyph glyph-name="yuanxing1" unicode="&#58919;" d="M512 896A512 512 0 1 0 0 384 512 512 0 0 0 512 896z m-1.778526-80.949895a429.972211 429.972211 0 0 1 0-859.944421h3.772631a429.972211 429.972211 0 1 1 0 859.944421h-3.772631z"  horiz-adv-x="1024" />

    
    <glyph glyph-name="kaiguanguan-open" unicode="&#58903;" d="M714.24 691.712l-404.48 0c-169.984 0-307.712-137.728-307.712-307.712s137.728-307.712 307.712-307.712l404.48 0C884.224 76.28800000000001 1021.952 214.01599999999996 1021.952 384s-137.728 307.712-307.712 307.712z m0.512-586.24c-154.112 0-279.04 124.928-279.04 279.04s124.928 279.04 279.03999999 279.04 279.04-124.928 279.04000001-279.04-124.928-279.04-279.04-279.04z"  horiz-adv-x="1024" />

    
    <glyph glyph-name="gengduo1" unicode="&#58909;" d="M222.608696 361.73913a111.304348 111.304348 0 1 0-222.630957 0.022261A111.304348 111.304348 0 0 0 222.608696 361.73913z m278.260869 178.086957a166.956522 166.956522 0 1 0 0-333.913044 166.956522 166.956522 0 0 0 0 333.913044zM890.434783 473.043478a111.304348 111.304348 0 1 0 0-222.608695 111.304348 111.304348 0 0 0 0 222.608695z"  horiz-adv-x="1024" />

    
    <glyph glyph-name="yuanxing2" unicode="&#58932;" d="M512 853.3c258.8 0 469.3-210.5 469.3-469.3S770.8-85.3 512-85.3 42.7 125.2 42.7 384 253.2 853.3 512 853.3M512 896C229.2 896 0 666.8 0 384s229.2-512 512-512 512 229.2 512 512S794.8 896 512 896z"  horiz-adv-x="1024" />

    
    <glyph glyph-name="dian-small" unicode="&#58883;" d="M330.32813005 383.60582594000005c0-100.53824288 81.50430023-182.04218705 182.04218704-182.04218704s182.04218705 81.50430023 182.04218706 182.04218704c0 100.53824288-81.50430023 182.04218705-182.04218706 182.04218705-100.53824288 0-182.04218705-81.50430023-182.04218703-182.04218704z"  horiz-adv-x="1024" />

    
    <glyph glyph-name="qiandao" unicode="&#59553;" d="M834 732.5h-38.4V751c0 17.7-14.3 32-32 32s-32-14.3-32-32v-18.6H292.4V751c0 17.7-14.3 32-32 32s-32-14.3-32-32v-18.6H190c-68.9 0-125-56.1-125-125V110c0-68.9 56.1-125 125-125h644c68.9 0 125 56.1 125 125V607.5c0 68.9-56.1 125-125 125z m-644-64h38.4v-21.8c0-17.7 14.3-32 32-32s32 14.3 32 32v21.8h439.1v-21.8c0-17.7 14.3-32 32-32s32 14.3 32 32v21.8H834c33.6 0 61-27.4 61-61v-28.1H129v28.1c0 33.6 27.4 61 61 61zM834 49H190c-33.6 0-61 27.4-61 61V515.4h766V110c0-33.7-27.4-61-61-61zM646.8 445.6L467.1 265.9l-89.9 89.9c-12.5 12.5-32.8 12.5-45.3 0s-12.5-32.8 0-45.3L444.4 198c6.2-6.2 14.4-9.4 22.6-9.4s16.4 3.1 22.6 9.4L692 400.4c12.5 12.5 12.5 32.8 0 45.3-12.4 12.4-32.7 12.4-45.2-0.1z"  horiz-adv-x="1024" />

    
    <glyph glyph-name="querenyuanzhengqueduigoutijiaochenggongwancheng" unicode="&#59608;" d="M512-71.11111100000005c251.363556 0 455.111111 203.747556 455.111111 455.111111S763.363556 839.111111 512 839.111111 56.888889 635.363556 56.888889 384s203.747556-455.111111 455.111111-455.111111z m239.815111 627.484444a42.666667 42.666667 0 0 0 60.387556-60.302222l-340.906667-341.333333a42.666667 42.666667 0 0 0-57.969778-2.247111l-199.111111 170.666666a42.666667 42.666667 0 0 0 55.552 64.796445l169.073778-144.952889L751.815111 556.373333z"  horiz-adv-x="1024" />

    
    <glyph glyph-name="zuji" unicode="&#59065;" d="M350.151111 10.951111A183.324444 183.324444 0 0 0 263.111111 355.555556h1.422222a30.72 30.72 0 0 1 4.835556 2.417777 128 128 0 0 1 38.257778 31.146667 126.293333 126.293333 0 0 1 28.444444 86.328889v1.564444 3.413334 24.32a257.706667 257.706667 0 0 0 59.448889 152.888889 28.444444 28.444444 0 1 0 43.804444-36.266667 200.96 200.96 0 0 1-46.506666-119.466667v-19.768889l-28.444445-3.413333 28.444445 1.706667v-2.844445a183.324444 183.324444 0 0 0-96.284445-169.244444c-2.133333-1.28-4.835556-2.56-7.68-3.982222a126.435556 126.435556 0 1 1 139.662223-209.493334l2.986666 2.133334 290.56 234.666666 2.133334 1.706667a209.208889 209.208889 0 0 1 29.297777 28.444444 203.662222 203.662222 0 0 1-124.017777 330.951111 28.444444 28.444444 0 1 0 9.244444 56.177778 261.831111 261.831111 0 0 0 124.017778-56.888889 260.693333 260.693333 0 0 0 34.702222-366.933333 276.622222 276.622222 0 0 0-35.413333-35.271111l-2.133334-1.848889-294.968889-236.942222a16.924444 16.924444 0 0 0-3.271111-2.275556 182.755556 182.755556 0 0 0-111.502222-37.831111zM709.688889 430.506667a28.444444 28.444444 0 0 0-18.204445 6.542222l-155.022222 128a28.444444 28.444444 0 1 0 36.266667 43.804444l155.022222-128a28.444444 28.444444 0 0 0-18.062222-50.346666zM605.582222 329.102222a28.444444 28.444444 0 0 0-18.062222 6.542222l-119.324444 98.702223a28.444444 28.444444 0 0 0 36.266666 43.804444l119.324445-98.702222a28.444444 28.444444 0 0 0-18.204445-50.346667zM501.617778 227.555556a28.444444 28.444444 0 0 0-18.062222 6.684444l-83.484445 68.977778a28.444444 28.444444 0 1 0 36.266667 43.804444l83.484444-68.977778a28.444444 28.444444 0 0 0 3.697778-40.106666 28.444444 28.444444 0 0 0-21.902222-10.382222zM373.76 145.92a28.444444 28.444444 0 0 0-18.204444 6.542222l-47.786667 39.395556a28.444444 28.444444 0 0 0 36.266667 43.946666l47.786666-39.537777a28.444444 28.444444 0 0 0-18.204444-50.346667zM512.142222 714.382222m-42.666666 0a42.666667 42.666667 0 1 1 85.333333 0 42.666667 42.666667 0 1 1-85.333333 0Z"  horiz-adv-x="1024" />

    
    <glyph glyph-name="kaiguanguan1" unicode="&#58884;" d="M1696.594826 384.199662A512.066554 512.066554 0 0 1 1184.528272 896H512.066554a512.066554 512.066554 0 0 1 0-1024h672.461718a512.066554 512.066554 0 0 1 512.066554 512.199662z m-46.720915-1.064864A464.680099 464.680099 0 1 0 1185.193813 847.548681a464.680099 464.680099 0 0 0 464.680098-464.680099z"  horiz-adv-x="1696" />

    
    <glyph glyph-name="qiaquan" unicode="&#59241;" d="M925.51036 481.298c23.659863 15.70775 24.318872 27.718295 24.318872 48.647977V675.883767c0 40.297798-32.668027 72.971965-72.971965 72.971965H147.14171c-40.298821 0-72.971965-32.673144-72.971965-72.971965v-145.938814c0-21.798469 1.517563-36.33965 24.322965-48.647976 33.232892-15.477506 72.971965-46.742581 72.971965-97.300047 0-65.609277-41.243333-86.959537-71.53422-97.189529-21.325701-13.343913-25.76071-35.319413-25.76071-48.748261v-145.942907c0-40.308031 32.673144-72.971965 72.971965-72.971965h729.71658c40.303938 0 72.971965 32.663934 72.971965 72.971965V238.05914c0 26.567076-6.095835 34.984792-24.322965 48.647977-53.125965 27.38879-72.971965 51.769061-72.971965 97.29493 0.004093 45.525869 18.584264 68.178799 72.975035 97.295953z m-31.937386-231.625358v-128.003326c0-26.337855-21.354354-47.695279-47.696302-47.695278H178.127422c-26.341948 0-47.695279 21.357424-47.695279 47.695278V249.672642c55.45194 19.709901 95.391581 72.114434 95.391581 134.325311 0 62.21497-39.939641 114.615411-95.391581 134.326335V646.325567c0 26.341948 21.352307 47.696302 47.695279 47.696302h667.74925c26.337855 0 47.696302-21.354354 47.696302-47.696302v-128.002302c-55.447846-19.706831-95.39772-72.111364-95.397721-134.326335 0-62.209854 39.949874-114.614387 95.397721-134.324288zM645.783471 433.237401h-87.567382c-1.620917 0-2.463098 1.933025-1.357927 3.119037l96.779184 103.97712c4.306072 4.711302 4.306072 12.350283 0 17.066701l-15.60235 17.067724c-4.310166 4.712325-11.290137 4.712325-15.601326 0L513.242805 457.158207c-0.733711-0.787946-1.982144-0.787946-2.715854 0L401.293107 574.506868c-4.27742 4.673439-11.209296 4.673439-15.482623 0l-15.477506-16.934694c-4.27742-4.678556-4.27742-12.255115 0-16.932648l97.074919-104.283088c1.104147-1.187035 0.26299-3.120061-1.357927-3.12006h-85.975117c-7.742335 0-14.019295-6.27696-14.019295-14.019295v-20.618597c0-7.740288 6.274914-14.015202 14.015202-14.015201h105.749486c1.02433 0 1.855254-0.830925 1.855254-1.855255v-44.937468a1.855254 1.855254 0 0 0-1.855254-1.855254H380.075877c-7.742335 0-14.019295-6.27696-14.019295-14.019295v-20.612457c0-7.740288 6.274914-14.015202 14.015201-14.015202h105.749486c1.02433 0 1.855254-0.830925 1.855254-1.855254v-81.424474c0-7.743358 6.27696-14.021342 14.021342-14.021341h20.611433c7.740288 0 14.016225 6.274914 14.016225 14.016225v81.42959c0 1.02433 0.830925 1.855254 1.855254 1.855254h105.748463c7.740288 0 14.015202 6.274914 14.015202 14.015202v20.612457c0 7.742335-6.27696 14.019295-14.019295 14.019295H538.179754a1.855254 1.855254 0 0 0-1.855254 1.855254v44.937468c0 1.02433 0.830925 1.855254 1.855254 1.855255h105.748463c7.740288 0 14.015202 6.274914 14.015201 14.015201v22.473851c-0.001023 6.718005-5.442966 12.165064-12.159947 12.165064z"  horiz-adv-x="1024" />

    
    <glyph glyph-name="rongyu" unicode="&#59366;" d="M786.592 79.68c-46.176-44.896-95.328-91.52-95.328-91.52l-84.768 144.8a392.96 392.96 0 0 1 218.976 142.656l92.704-158.304s-66.08-18.976-131.584-37.632zM512 191.744c-176.48 0-319.52 143.424-319.52 320.352S335.52 832.416 512 832.416s319.52-143.424 319.52-320.32S688.48 191.744 512 191.744zM332.768-11.84s-49.152 46.624-95.328 91.52c-65.504 18.624-131.584 37.632-131.584 37.632l92.704 158.304A393.12 393.12 0 0 1 417.536 132.96l-84.768-144.8z m531.744 349.92a380.64 380.64 0 0 1 40.512 170.528C905.024 722.592 729.056 896 512 896S119.008 722.56 119.008 508.608c0-61.312 14.848-119.008 40.512-170.528L0 65.728s101.184-20.32 203.808-41.44A222608.082 222608.082 0 0 0 340.352-128L487.04 122.432c8.32-0.512 16.544-1.216 24.992-1.216s16.672 0.736 24.992 1.216L683.712-128s68.096 76.064 136.544 152.288c102.624 21.12 203.808 41.44 203.808 41.44L864.544 338.08zM512 352c-88.32 0-159.904 71.616-159.904 160a159.936 159.936 0 1 0 319.84 0c0-88.384-71.584-160-159.936-160z m0 384c-123.648 0-223.872-100.288-223.872-224S388.352 288 512 288c123.648 0 223.904 100.288 223.904 224S635.648 736 512 736z"  horiz-adv-x="1024" />

    
    <glyph glyph-name="zuji1" unicode="&#59649;" d="M903.985789 378.160563c-26.383717 160.958271-139.358503 327.501482-282.696963 327.501482-100.156924 0-173.548136-26.757713-231.042518-84.205096-57.813379-57.814379-76.789175-106.832852-70.022248-180.880057 5.62394-61.334341 64.19931-99.439932 120.863702-136.258536 52.791433-34.286632 107.350847-69.770251 123.850669-122.249687 3.039967-9.693896 13.00986-50.017463 13.009861-160.760273 0-90.219031 78.527156-134.001561 120.06971-144.541447l2.81197-0.549994c20.211783-2.80397 37.526597-4.205955 52.951431-4.205955 83.337105 0 115.521759 40.02657 148.9554 118.919722 25.789723 60.725348 26.323717 234.464481 1.249986 387.229841z m-49.597467-366.736061c-29.935678-70.648241-48.721477-86.873067-100.53792-86.873067-12.559865 0-26.932711 1.119988-43.973528 3.466963-10.562887 3.071967-79.344148 25.759723-79.344147 93.289998 0 82.149118-5.463941 144.855444-15.409835 176.521104-22.176762 70.533242-87.619059 113.051786-145.380438 150.585382-48.271481 31.345663-93.860992 60.999345-97.176956 96.978958-5.364942 58.309374 7.986914 92.055011 54.819411 138.887509 47.624488 47.593489 107.403846 68.826261 193.865917 68.82626 101.649908 0 205.228795-127.143634 230.843521-283.444955 25.362728-154.465341 21.582768-312.74064 2.293975-358.238152zM185.756505 707.705023c-20.705778 0-39.606575-6.668928-54.612414-19.289793-39.576575-33.295642-39.538575-98.70894 0.075999-145.852433 23.389749-27.854701 56.686391-44.461522 89.069044-44.461523 20.735777 0 39.598575 6.675928 54.634413 19.289793 19.792787 16.635821 30.659671 42.433544 29.79968 70.76924-0.792991 26.437716-11.401878 53.111429-29.882679 75.083193-23.404749 27.831701-56.709391 44.461522-89.084043 44.461523z m55.337405-150.082388c-16.552822-13.95485-49.697466-4.961947-69.611252 18.732799-20.629778 24.554736-23.602746 57.447383-6.51593 71.798228 5.501941 4.62595 12.489866 6.965925 20.797776 6.965926 16.78982 0 35.506619-9.854894 48.829476-25.729724 10.736885-12.772863 17.131816-28.379695 17.580811-42.83754 0.228998-7.148923-0.93699-20.417781-11.080881-28.929689z m91.652016 128.42262c15.980828 0 30.590671 5.174944 42.205546 14.95284 15.317835 12.872862 23.746745 32.717649 23.091752 54.399415-0.571994 19.685789-8.429909 39.469576-22.070763 55.726402-28.746691 34.179633-79.259149 42.594542-108.615833 17.939807-30.217675-25.409727-30.667671-74.786197-1.021989-110.086817 17.338814-20.653778 42.145547-32.931646 66.411287-32.931647zM301.194265 788.801152a12.726863 12.726863 0 0 0 8.413909 2.659971c6.881926 0 17.367813-3.73396 26.147719-14.159848 5.989936-7.125923 9.533898-15.661832 9.777895-23.473748 0.106999-3.253965-0.342996-9.197901-4.389953-12.581865-6.179934-5.250944-21.315771-4.237954-34.561628 11.514877-11.431877 13.603854-12.284868 30.233675-5.387942 36.040613z m189.216967-50.192461c15.989828 0 30.599671 5.189944 42.236546 14.982839 30.186676 25.416727 30.666671 74.786197 1.019989 110.086817-28.722691 34.158633-79.251149 42.572543-108.638833 17.932808-15.317835-12.871862-23.723745-32.717649-23.068752-54.376416 0.571994-19.685789 8.429909-39.477576 22.070763-55.687402 17.322814-20.637778 42.129547-32.939646 66.380287-32.939646zM458.859571 841.364587a12.711863 12.711863 0 0 0 8.413909 2.651971c6.881926 0 17.368813-3.71996 26.155719-14.152848 11.431877-13.610854 12.292868-30.255675 5.410942-36.055612-6.203933-5.280943-21.339771-4.229955-34.561628 11.507876-5.989936 7.133923-9.533898 15.669832-9.777895 23.465748-0.113999 3.261965 0.327996 9.190901 4.359953 12.582865z m184.820014-101.970905c7.308921 0 14.449845 1.309986 21.209773 3.916958 17.550811 6.752927 31.139665 21.842765 37.2136 41.390556 5.58594 17.977807 4.63395 38.319588-2.666971 57.272384C687.02812 874.272233 658.670424 896.008 628.901744 896.008c-7.338921 0-14.471845-1.310986-21.239772-3.917958-34.835626-13.412856-50.337459-57.653381-34.539629-98.65494 12.430866-32.359652 40.781562-54.041419 70.557242-54.04142zM623.7278 850.34949a14.647843 14.647843 0 0 0 5.181944 0.94499c9.457898 0 22.436759-8.725906 28.822691-25.385727 3.650961-9.488898 4.275954-19.654789 1.684981-27.9317-1.173987-3.787959-4.122956-10.486887-10.562886-12.985861-10.28089-3.985957-26.414716 4.602951-34.059634 24.417738-7.369921 19.258793-1.233987 37.053602 8.932904 40.94056z m155.524329-168.686188c1.499984 0 3.009968 0.053999 4.526951 0.182998 17.238815 1.439985 33.089645 11.294879 43.493533 27.01671 9.617897 14.495844 14.037849 32.824647 12.459866 51.587446-3.443963 40.681563-33.014645 71.006237-68.307266 68.118268-17.239815-1.470984-33.083645-11.302879-43.494533-27.017709-9.586897-14.502844-14.00685-32.831647-12.429866-51.571446 3.253965-38.966581 30.67567-68.316266 63.751315-68.316267z m-18.435802 98.098947c2.179977 3.284965 6.873926 8.909904 15.127838 9.534897 10.516887 0 22.863754-12.933861 24.524736-32.229654 0.807991-9.793895-1.401985-19.449791-6.012935-26.460715-2.186977-3.284965-6.912926-8.909904-13.931851-9.519898l-1.233986-0.052999c-10.509887 0-22.863754 12.925861-24.486737 32.222653-0.860991 9.815895 1.325986 19.463791 6.012935 26.505716z"  horiz-adv-x="1024" />

    
    <glyph glyph-name="bianji1" unicode="&#59528;" d="M767.515-60.397h-574.95c-52.833 0-95.826 42.99-95.826 95.823V674.23c0 52.826 42.993 95.817 95.826 95.817h447.181c17.662 0 31.944-14.309 31.944-31.937 0-17.632-14.282-31.94-31.944-31.94h-447.18c-17.601 0-31.944-14.339-31.944-31.939v-638.805c0-17.634 14.343-31.942 31.943-31.942h574.951c17.627 0 31.939 14.307 31.939 31.942v511.04c0 17.633 14.28 31.942 31.943 31.942 17.664 0 31.94-14.308 31.94-31.942v-511.04c-0.002-52.833-42.996-95.823-95.823-95.823z m-187.66 511.04a31.852 31.852 0 0 0-22.58 9.364c-12.493 12.486-12.493 32.672 0 45.16L874.706 822.59c12.49 12.492 32.68 12.492 45.166 0 12.492-12.485 12.492-32.672 0-45.165L602.441 460.007c-6.23-6.264-14.407-9.363-22.586-9.363z m-131.756 0H256.448c-17.633 0-31.944 14.31-31.944 31.943 0 17.632 14.31 31.942 31.944 31.942H448.1c17.629 0 31.938-14.31 31.938-31.942 0-17.632-14.31-31.942-31.94-31.942z m191.647-191.639H256.448c-17.633 0-31.944 14.276-31.944 31.939 0 17.667 14.31 31.942 31.944 31.942h383.298c17.662 0 31.944-14.275 31.944-31.942 0-17.662-14.282-31.939-31.944-31.939z m0 0"  horiz-adv-x="1024" />

    
    <glyph glyph-name="qianbao" unicode="&#58890;" d="M1021.866667 731.733333c0 87.466667-74.666667 162.133333-162.133334 162.133334H162.133333C74.666667 893.866667 0 819.2 0 731.733333v-693.333333c0-87.466667 74.666667-162.133333 162.133333-162.133333h693.333334c87.466667 0 162.133333 74.666667 162.133333 162.133333v172.8H652.8c0 2.133333-140.8-8.533333-140.8 166.4 0 187.733333 153.6 174.933333 153.6 174.933333H1024V731.733333z m0 0M578.133333 379.733333c0-121.6 108.8-108.8 108.8-108.8h324.266667v234.666667H695.466667c0-2.133333-117.333333 6.4-117.333334-125.866667z m121.6 53.333334c21.333333 0 40.533333-19.2 40.533334-40.533334 0-14.933333-8.533333-27.733333-21.333334-38.4-12.8-6.4-27.733333-6.4-40.533333 0-12.8 6.4-21.333333 21.333333-21.333333 38.4 2.133333 21.333333 21.333333 40.533333 42.666666 40.533334z m0 0"  horiz-adv-x="1024" />

    
    <glyph glyph-name="qiaquan1" unicode="&#58911;" d="M1384.73866665 772.98c0 33.444-27.612 60.66-61.56 60.66H471.92266665a31.176 31.176 0 0 1-9 0H150.19066665C116.27866665 833.64 88.66666665 806.424 88.66666665 772.98v-217.008c0-2.016 0.216-3.996 0.648-5.904a28.296 28.296 0 0 1 28.224-31.788c76.14 0 113.688-67.968 115.164-116.28 2.304-74.988-39.024-155.916-115.164-155.916a28.296 28.296 0 0 1-28.224-31.824 26.748 26.748 0 0 1-0.648-5.904v-213.696C88.66666665-38.78399999999999 116.27866665-66 150.19066665-66h1172.988c33.948 0 61.56 27.216 61.56 60.66v225.108a28.26 28.26 0 0 1-28.512 28.044l-1.62-0.072c-75.348 0.9-113.904 43.74-113.904 118.26 0 77.58 36.828 153.9 115.524 153.9 15.768 0 28.512 12.6 28.512 28.08l-0.036 0.756 0.036 0.756V772.98z m-168.264-253.404c-35.64-35.784-55.26-83.988-55.26-135.756 0-96.48 72.144-192.78 151.524-197.82v-180c0-2.448-15.876 23.292 0 0h-720v72c3.384 0.828-20.268 0-36 0-15.732 0-37.116-1.404-36 0v-72H160.66666665c-2.484 0 0-2.448 0 0v180c94.284 13.5 151.92 99.576 151.92 196.164S254.98666665 568.5360000000001 160.66666665 582V762c0 2.484-2.484 0 0 0h360v-72c3.384 0.252 56.268 0 72 0 6.768 0 0 1.368 0 0V762h720c-5.616-19.584 0 2.484 0 0v-180c-13.212-2.124-66.384-32.508-96.192-62.424zM556.70266665 582c-15.732 0-36 0.9-36 0v-144c0 2.484 20.268 0 36 0 15.768 0 37.116 2.484 36 0V582c-3.384 0.9-20.268 0-36 0z m0-252c-15.732 0-37.116-0.252-36 0v-144c3.384 1.332 20.268 0 36 0 15.768 0 39.384-2.052 36 0v144c0 2.016-20.268 0-36 0z"  horiz-adv-x="1474" />

    
    <glyph glyph-name="bianji2" unicode="&#58906;" d="M413.538462 717.193846h185.501538a39.384615 39.384615 0 0 1 0 78.769231H413.538462a39.384615 39.384615 0 0 1 0-78.769231zM422.990769 166.203077a39.384615 39.384615 0 0 1 39.384616 39.384615v287.113846a39.384615 39.384615 0 0 1-78.769231 0v-287.113846a39.384615 39.384615 0 0 1 39.384615-39.384615zM599.433846 166.203077a39.384615 39.384615 0 0 1 39.384616 39.384615v287.113846a39.384615 39.384615 0 1 1-78.769231 0v-287.113846a39.384615 39.384615 0 0 1 39.384615-39.384615zM834.56 686.473846H178.018462a39.384615 39.384615 0 1 1 0-78.769231h39.384615v-556.898461a39.384615 39.384615 0 0 1 39.384615-39.384616H756.184615a39.384615 39.384615 0 0 1 39.384616 39.384616V607.704615h39.384615a39.384615 39.384615 0 0 1 0 78.769231z m-118.153846-596.283077H295.384615V607.704615h421.415385z"  horiz-adv-x="1024" />

    
    <glyph glyph-name="qiandao1" unicode="&#58924;" d="M448 64c-8.704 0-16.384 3.584-22.528 9.216l-159.744 160.256c-12.288 12.288-12.288 32.768 0 45.056 12.288 12.288 32.768 12.288 45.056 0l137.216-137.216 265.216 265.216c12.288 12.288 32.768 12.288 45.056 0 12.288-12.288 12.288-32.768 0-45.056l-287.744-288.256c-6.144-5.632-13.824-9.216-22.528-9.216zM896-96.256H128c-53.248 0-95.744 43.008-96.256 96.256V704c0 53.248 43.008 95.744 96.256 96.256h64c17.92 0 32.256-14.336 32.256-32.256s-14.336-32.256-32.256-32.256H128c-17.92 0-31.744-14.336-32.256-32.256V0c0-17.92 14.336-31.744 32.256-32.256h768c17.92 0 31.744 14.336 32.256 32.256V704c0 17.92-14.336 31.744-32.256 32.256h-64c-17.92 0-32.256 14.336-32.256 32.256s14.336 32.256 32.256 32.256H896c53.248 0 95.744-43.008 96.256-96.256V0c-0.512-53.248-43.008-95.744-96.256-96.256zM640 735.744H384c-17.92 0-32.256 14.336-32.256 32.256s14.336 32.256 32.256 32.256h256c17.92 0 32.256-14.336 32.256-32.256s-14.336-32.256-32.256-32.256z m96.256-64c-17.92 0-32.256 14.336-32.256 32.256v128c0 17.92 14.336 32.256 32.256 32.256S768 849.92 768 832v-128c0-17.92-14.336-32.256-31.744-32.256z m-448 0c-17.92 0-32.256 14.336-32.256 32.256v128c0 17.92 14.336 32.256 32.256 32.256s32.256-14.336 32.256-32.256v-128c-0.512-17.92-14.848-32.256-32.256-32.256zM960 512h-896c-17.92 0-32.256 14.336-32.256 32.256s14.336 32.256 32.256 32.256h896c17.92 0 32.256-14.336 32.256-32.256S977.92 512 960 512z"  horiz-adv-x="1024" />

    
    <glyph glyph-name="zuji2" unicode="&#59195;" d="M906.60859536 523.07216801c-0.79079856 11.86198148-7.90798791 22.93316516-21.35156728 30.05035375-14.23437792 7.90798791-33.21354875 11.07118292-50.61112245 8.69878723-23.72396373-3.16319501-44.28473245-12.65278081-57.72831183-26.09636017-13.44357937-11.86198148-18.97917083-27.67795729-15.02517648-42.70313456 4.7447929-20.56076872 30.05035375-34.79514665 59.30990893-34.79514665h10.28038437c25.30556085 2.37239646 48.23872601 12.65278081 62.47310393 28.46875663 9.4895858 10.28038436 14.23437792 22.93316516 12.65278081 36.37674377z m-60.89150682-16.60677438c-3.16319501-3.95399357-9.4895858-6.32639003-15.81597582-7.11718935-2.37239646-0.79079856-5.53559146 0-7.90798791 0.79079933s-3.95399357 2.37239646-3.95399357 4.74479212c-0.79079856 3.16319501 0.79079856 7.11718936 3.95399357 9.48958581 3.16319501 3.16319501 8.69878647 6.32639003 14.23437793 7.11718936h2.37239645c2.37239646 0 4.7447929-0.79079856 6.32639078-1.5815979 2.37239646-0.79079856 3.16319501-3.16319501 3.16319502-4.7447929 1.58159789-3.16319501 0.79079856-6.32639003-2.37239645-8.69878647zM553.12153666 628.24840728c9.4895858-15.81597583 32.4227502-26.09636017 56.93751326-26.09636018 9.4895858 0 18.97917083 1.58159789 27.6779573 3.95399357 25.30556085 7.90798791 44.28473245 23.72396373 51.40192103 42.70313455 5.53559146 13.44357937 5.53559146 26.88715874 0 40.33073811-5.53559146 12.65278081-18.97917083 22.93316516-35.58594522 28.46875662-17.39757371 4.7447929-36.37674454 4.7447929-52.9835189-1.58159788-22.14236584-7.11718936-38.74914099-20.56076872-47.44792747-37.16754232-10.28038436-15.02517726-9.4895858-34.00434808 0-50.61112247z m49.82032391 37.16754309c2.37239646 5.53559146 7.90798791 9.4895858 15.02517726 11.86198148 2.37239646 0.79079856 4.7447929 1.58159789 7.11718857 1.5815979h5.53559147c3.95399357-1.58159789 7.11718936-3.95399357 7.90798791-7.11718936 2.37239646-3.95399357 2.37239646-8.69878647 0-13.44357936-2.37239646-6.32639003-7.90798791-11.07118292-15.81597581-13.44357937-3.16319501-1.58159789-7.90798791-1.58159789-11.07118293-0.79079856-3.95399357 0.79079856-7.11718936 3.16319501-8.69878647 5.53559146-3.16319501 5.53559146-3.16319501 11.07118292 0 15.81597581zM670.95055675 538.09734527C630.61981787 564.984504 583.17189118 586.3360712799999 530.97917083 599.77965066 488.27603627 612.43243146 440.82810882 616.38642503 394.96177925 610.8508335700001c-58.51911038-4.7447929-109.13023284-30.84115309-134.43579368-68.00869541-36.37674454-45.86632956-42.70313454-101.22224492-16.60677438-150.25177027 7.90798791-15.02517726 14.23437792-29.25955519 19.76996939-42.70313456 11.86198148-27.67795729 4.7447929-57.72831181-18.97917083-81.45227477-15.81597583-16.60677438-35.58594521-32.4227502-56.93751249-45.86632956-15.81597583-10.28038436-29.25955519-22.14236584-40.33073888-34.79514665-14.23437792-17.39757371-23.72396373-36.37674454-27.67795729-56.14671392-5.53559146-25.30556085-0.79079856-52.19272035 13.44357937-75.91668408 18.97917083-30.05035375 56.93751248-52.98351892 102.80384282-60.89150683 18.97917083-3.95399357 39.53993955-5.53559146 59.30990893-5.53559146 41.12153666 0 80.66147621 8.69878647 114.6658243 25.30556162 30.05035375 14.23437792 57.72831181 31.63195163 83.03387266 50.61112246 65.63629973 49.8203239 124.15540932 102.80384282 176.34812969 159.7413553 33.21354875 34.79514665 57.72831181 72.7534883 73.54428687 113.08422641l2.37239644 7.90798792c1.58159789 5.53559146 3.16319501 11.86198148 4.74479289 17.39757293 17.39757371 64.05470183-12.65278081 129.69100156-79.07987831 174.76653257z m7.11718857-192.95490407c-15.81597583-40.33073811-41.912336-77.4982812-75.91668331-112.29342784-38.74914099-44.28473245-84.61547055-86.19706766-135.22659302-124.1554101l-4.74479289-3.95399358c-72.7534883-59.30990893-145.50697661-81.45227554-216.67886779-66.42709828-22.14236584 6.32639003-40.33073811 18.97917083-48.23872601 34.79514665-15.02517726 20.56076872-18.18837227 44.28473245-7.90798793 66.42709829 15.81597583 27.67795729 40.33073811 52.98351892 71.96268975 72.7534883 11.07118292 7.11718936 21.35156728 15.02517726 30.05035375 23.72396373 28.46875662 28.46875662 43.49393312 63.26390328 41.12153745 98.84984848-3.16319501 17.39757371-8.69878647 34.79514665-16.60677439 51.40192103-15.81597583 35.58594521-32.4227502 75.12588475-11.86198225 111.50262928 18.18837227 30.84115309 41.12153666 61.68230539 103.59464139 64.05470184h15.8159758c76.70748264-2.37239646 148.67017238-24.51476229 204.81688631-61.68230539 58.51911038-40.33073811 73.54428763-88.56946413 49.82032314-154.99656241zM202.79767375 617.1772235799999c18.97917083-9.4895858 41.912336-15.02517726 65.63629973-14.23437792 6.32639003-0.79079856 11.86198148-0.79079856 18.18837226 0 27.67795729 3.95399357 52.19272035 15.81597583 67.21789685 32.42275019 15.81597583 15.81597583 23.72396373 34.79514665 22.14236583 53.77431748-0.79079856 26.88715874-18.18837227 52.98351892-47.44792745 70.38109262C306.39231512 773.75538388 276.34196138 780.87257323 245.50080831 779.29097534c-29.25955519-2.37239646-55.35591536-12.65278081-72.75348831-29.25955519-20.56076872-19.76996938-29.25955519-44.28473245-23.72396372-68.79949473 5.53559146-26.09636017 24.51476229-49.02952458 53.77431747-64.05470183z m19.76997016 97.26825136c7.11718936 7.11718936 18.18837227 11.86198148 30.05035375 12.65278081h6.32639002c11.07118292 0 22.14236584-2.37239646 30.05035374-7.90798791 13.44357937-7.11718936 22.14236584-18.97917083 22.93316517-30.84115306 0-8.69878647-3.16319501-16.60677438-10.28038436-22.93316442-6.32639003-7.11718936-15.81597583-11.86198148-26.88715874-13.44358012-11.86198148-1.58159789-24.51476229 0-34.79514665 4.74479289-13.44357937 6.32639003-22.93316516 16.60677438-26.09636017 28.46875662-2.37239646 10.28038436 0.79079856 20.56076872 8.69878724 29.25955519zM437.6649138 619.54962004c6.32639003-1.58159789 12.65278081-2.37239646 19.76997017-2.37239646 12.65278081 0 24.51476229 2.37239646 35.58594521 6.32639079 28.46875662 11.86198148 49.02952458 31.63195163 54.56511603 55.35591538 4.7447929 16.60677438 3.16319501 34.00434808-5.53559146 49.82032312-7.11718936 15.02517726-23.72396373 26.88715874-44.28473167 33.21354954-20.56076872 4.7447929-42.70313454 3.16319501-60.89150683-4.74479291-49.8203239-24.51476229-68.79949474-70.38109186-44.28473245-109.9210314 8.69878647-13.44357937 25.30556085-23.72396373 45.075531-27.67795806zM459.80727965 716.02707207c3.16319501 1.58159789 7.11718936 2.37239646 11.07118369 2.37239645h6.32639001c6.32639003-2.37239646 11.07118292-6.32639003 13.44357937-11.07118292 2.37239646-6.32639003 2.37239646-13.44357937 0-20.56076795-2.37239646-8.69878647-10.28038436-16.60677438-21.35156726-21.35156728-4.7447929-1.58159789-10.28038436-2.37239646-15.81597583-1.58159789-4.7447929 1.58159789-8.69878647 3.95399357-11.86198149 7.11718936-8.69878647 16.60677438-1.58159789 34.79514665 18.1883715 45.07553023zM815.66673478 583.96367483c7.90798791 12.65278081 11.07118292 26.88715874 7.90798792 40.3307381-3.16319501 13.44357937-14.23437792 25.30556085-30.05035452 32.4227502-15.02517726 6.32639003-34.00434808 7.90798791-50.61112246 3.95399434-46.65712813-13.44357937-71.96268974-48.23872601-60.89150605-83.03387266 3.95399357-11.86198148 15.02517726-22.14236584 30.05035374-28.46875662 8.69878647-3.16319501 18.97917083-5.53559146 28.46875663-5.53559147 6.32639003 0 11.86198148 0.79079856 18.18837149 1.5815979 25.30556085 7.11718936 46.65712813 21.35156728 56.93751325 38.74914021z m-48.238726 15.81597583h-1.5815979c-3.16319501-5.53559146-9.4895858-9.4895858-17.39757294-11.07118293-3.16319501-0.79079856-6.32639003-0.79079856-9.4895858 0-3.16319501 1.58159789-5.53559146 3.95399357-6.32639001 6.32639001-3.95399357 11.07118292 5.53559146 22.14236584 21.35156728 25.30556162h4.74479212c1.58159789 0.79079856 3.95399357 0.79079856 5.53559146 0 3.16319501-1.58159789 5.53559146-3.95399357 6.32639079-7.11718934 1.58159789-4.7447929 0-9.4895858-3.163195-13.44357936z"  horiz-adv-x="1024" />

    
    <glyph glyph-name="wodedangxuan" unicode="&#58885;" d="M907.264-70.65599999999995H114.688c-16.384 0-32.768 8.192-43.008 20.48-10.24 14.336-14.336 30.72-10.24 47.104 40.96 208.896 210.944 364.544 415.744 380.928 68.608 0 142.848-8.704 217.088-38.912 21.504-8.704 28.672-14.336 40.96-20.48 118.784-67.584 200.704-184.32 227.328-321.536 4.096-16.384 0-32.768-12.288-47.104-10.24-12.288-26.624-20.48-43.008-20.48zM115.712-37.375999999999976c-6.656 0-12.8 2.56-16.384 7.168-0.512 0.512-0.512 1.024-1.024 1.536-5.12 5.12-5.632 13.824-4.608 18.944 37.888 194.56 197.12 340.48 387.584 354.304h15.36c91.648 0 179.712-28.672 222.72-55.808C832 221.18399999999997 907.264 115.20000000000005 930.816-9.727999999999952c1.024-7.168-0.512-13.824-5.632-20.48-3.584-4.608-9.728-7.168-16.384-7.168H115.712zM496.64 332.288c89.088 0 174.592-27.648 216.064-53.76h0.512c109.568-65.024 182.272-167.936 204.8-289.792 0.512-2.56 0.512-6.144-3.584-10.752-0.512-1.024-3.072-2.048-6.144-2.048H115.712c-3.072 0-5.632 1.024-6.144 2.048-0.512 1.024-1.536 2.048-2.56 2.56-1.024 1.024-2.048 4.096-1.024 7.68 36.864 188.928 190.976 330.24 375.808 344.064 4.608-0.512 9.728 0 14.848 0m0 25.6c-5.12 0-10.752 0-15.872-0.512C284.16 343.03999999999996 120.32 193.53599999999994 81.408-7.168000000000006c-2.048-10.24 0-22.528 8.192-30.72 6.144-8.192 16.384-12.288 26.624-12.288H908.8c10.24 0 20.48 4.096 26.624 12.288 6.144 8.192 10.24 18.432 8.192 30.72-24.576 131.072-102.4 238.592-217.088 307.2-43.52 27.136-132.608 57.856-229.888 57.856zM512 359.424c-129.024 0-235.52 106.496-235.52 235.52S382.976 830.4639999999999 512 830.4639999999999s235.52-106.496 235.52-235.52S641.024 359.424 512 359.424zM512 392.704c-111.616 0-202.24 90.624-202.24 202.24S400.384 797.184 512 797.184s202.24-90.624 202.24-202.24-90.624-202.24-202.24-202.24zM512 784.384c104.448 0 189.44-84.992 189.44-189.44S616.448 405.504 512 405.504s-189.44 84.992-189.44 189.44 84.992 189.44 189.44 189.44m0 25.6c-118.784 0-215.04-96.256-215.04-215.04s96.256-215.04 215.04-215.04 215.04 96.256 215.04 215.04S630.784 809.984 512 809.984z"  horiz-adv-x="1024" />

    
    <glyph glyph-name="shiliangzhinengduixiang" unicode="&#58886;" d="M950.953478 457.046522C950.953478 699.465968 754.419446 896 512 896S73.046522 699.465968 73.046522 457.046522a437.484905 437.484905 0 0 1 125.652906-307.201498h-0.179825l1.783267-1.783268c0.884141-0.884141 1.753296-1.798253 2.667408-2.682393l248.203825-248.18884a85.971463 85.971463 0 0 1 121.591852 0L820.954795 145.379363c0.869155 0.884141 1.783267 1.768282 2.667408 2.682393l1.783267 1.783268h-0.16484a437.290094 437.290094 0 0 1 125.712848 307.201498zM572.795926 0.53011c-60.720999-60.720999-60.75097-60.870853-121.591852 0L253.486193 199.296972c-66.025844 66.100771-107.280757 156.897546-107.280758 257.74955 0 202.018703 163.760877 365.794565 365.794565 365.794565s365.794565-163.760877 365.794565-365.794565c0-100.852004-41.254913-191.648779-107.295743-257.74955z m-60.691028 675.993151a219.476739 219.476739 0 1 1 219.476739-219.476739 219.476739 219.476739 0 0 1-219.476739 219.476739z m0-365.794565a146.317826 146.317826 0 1 0 146.317826 146.317826 146.332811 146.332811 0 0 0-146.317826-146.317826z m0 0"  horiz-adv-x="1024" />

    
    <glyph glyph-name="trans-null" unicode="&#58887;" d="M512 715.4017975300001c152.27912596 0 276.16816418-123.88903821 276.16816418-276.16816418v-193.31771608c0-17.92331345 5.82714784-35.37714189 16.57008987-49.71026963L871.01861357 107.83183582000004H152.98138643l66.28035952 88.37381182c10.74294204 14.33312773 16.57008987 31.78695617 16.57008987 49.71026963v193.31771608c0 152.27912596 123.88903821 276.16816418 276.16816418 276.16816418m0 82.85044938c-198.28874175 0-359.01861357-160.72987181-359.01861357-359.01861356v-193.31771608l-82.85044937-110.46726542v-55.23363335c0-30.37849854 24.85513482-55.23363335 55.23363206-55.23363207h773.27086176c30.37849854 0 55.23363335 24.85513482 55.23363206 55.23363207v55.23363335l-82.85044937 110.46726542v193.31771608c0 198.28874175-160.72987181 359.01861357-359.01861357 359.01861356zM512-57.86906294000005a82.85044939 82.85044939 0 0 0-82.85044939 82.85044937h-82.85044937c0-91.35642928 74.34446948-165.70089876 165.70089876-165.70089876s165.70089876 74.34446948 165.70089876 165.70089876h-82.85044937a82.85044939 82.85044939 0 0 0-82.85044939-82.85044937zM512 715.4017975300001a55.23363335 55.23363335 0 1 0-0.02761638 110.43964903A55.23363335 55.23363335 0 0 0 512 715.4017975300001h126.3745517A137.1727278 137.1727278 0 0 1 650.08408273 770.6354308800001c0 76.13956299-61.94451975 138.08408273-138.08408273 138.08408145s-138.08408273-61.94451975-138.08408273-138.08408145c0-19.6631729 4.28060699-38.27690762 11.70953103-55.23363335H512z"  horiz-adv-x="1024" />

    
    <glyph glyph-name="Icon_wodeB" unicode="&#59137;" d="M882.56-42.24000000000001H139.52c-15.36 0-30.72 7.68-40.32 19.2-9.6 13.44-13.44 28.8-9.6 44.16 38.4 195.84 197.76 341.76 389.76 357.12 64.32 0 133.92-8.16 203.52-36.48 20.16-8.16 26.88-13.44 38.4-19.2 111.36-63.36 188.16-172.8 213.12-301.44 3.84-15.36 0-30.72-11.52-44.16-9.6-11.52-24.96-19.2-40.32-19.2zM140.48-11.039999999999964c-6.24 0-12 2.4-15.36 6.72-0.48 0.48-0.48 0.96-0.96 1.44-4.8 4.8-5.28 12.96-4.32 17.76 35.52 182.4 184.8 319.2 363.36 332.16h14.4c85.92 0 168.48-26.88 208.8-52.32C812 231.36 882.56 132 904.64 14.879999999999995c0.96-6.72-0.48-12.96-5.28-19.2-3.36-4.32-9.12-6.72-15.36-6.72H140.48zM497.6 335.52c83.52 0 163.68-25.92 202.56-50.4h0.48c102.72-60.96 170.88-157.44 192-271.68 0.48-2.4 0.48-5.76-3.36-10.08-0.48-0.96-2.88-1.92-5.76-1.92H140.48c-2.88 0-5.28 0.96-5.76 1.92-0.48 0.96-1.44 1.92-2.4 2.4-0.96 0.96-1.92 3.84-0.96 7.2 34.56 177.12 179.04 309.6 352.32 322.56 4.32-0.48 9.12 0 13.92 0m0 24c-4.8 0-10.08 0-14.88-0.48C298.4 345.6 144.8 205.44000000000005 108.32 17.279999999999973c-1.92-9.6 0-21.12 7.68-28.8 5.76-7.68 15.36-11.52 24.96-11.52H884c9.6 0 19.2 3.84 24.96 11.52 5.76 7.68 9.6 17.28 7.68 28.8-23.04 122.88-96 223.68-203.52 288-40.8 25.44-124.32 54.24-215.52 54.24z m14.4 1.44c-120.96 0-220.8 99.84-220.8 220.8S391.04 802.56 512 802.56s220.8-99.84 220.8-220.8S632.96 360.96000000000004 512 360.96000000000004zM512 392.16c-104.64 0-189.6 84.96-189.6 189.6S407.36 771.36 512 771.36s189.6-84.96 189.6-189.6-84.96-189.6-189.6-189.6zM512 759.36c97.92 0 177.6-79.68 177.6-177.6S609.92 404.16 512 404.16s-177.6 79.68-177.6 177.6 79.68 177.6 177.6 177.6m0 24c-111.36 0-201.6-90.24-201.6-201.6s90.24-201.6 201.6-201.6 201.6 90.24 201.6 201.6S623.36 783.36 512 783.36z"  horiz-adv-x="1024" />

    
    <glyph glyph-name="wodedangxuan-copy-copy" unicode="&#58888;" d="M859.4-15.600000000000023H162.8c-14.4 0-28.8 7.2-37.8 18-9 12.6-12.6 27-9 41.4 36 183.6 185.4 320.4 365.4 334.8 60.3 0 125.55-7.65 190.8-34.2 18.9-7.65 25.2-12.6 36-18 104.4-59.4 176.4-162 199.8-282.6 3.6-14.4 0-28.8-10.8-41.4-9-10.8-23.4-18-37.8-18zM163.7 13.649999999999977c-5.85 0-11.25 2.25-14.4 6.3-0.45 0.45-0.45 0.9-0.9 1.35-4.5 4.5-4.95 12.15-4.05 16.65 33.3 171 173.25 299.25 340.65 311.4h13.5c80.55 0 157.95-25.2 195.75-49.05C793.25 240.89999999999998 859.4 147.75 880.1 37.950000000000045c0.9-6.3-0.45-12.15-4.95-18-3.15-4.05-8.55-6.3-14.4-6.3H163.7zM498.5 338.54999999999995c78.3 0 153.45-24.3 189.9-47.25h0.45c96.3-57.15 160.2-147.6 180-254.7 0.45-2.25 0.45-5.4-3.15-9.45-0.45-0.9-2.7-1.8-5.4-1.8H163.7c-2.7 0-4.95 0.9-5.4 1.8-0.45 0.9-1.35 1.8-2.25 2.25-0.9 0.9-1.8 3.6-0.9 6.75 32.4 166.05 167.85 290.25 330.3 302.4 4.05-0.45 8.55 0 13.05 0m0 22.5c-4.5 0-9.45 0-13.95-0.45C311.75 348 167.75 216.60000000000002 133.55 40.200000000000045c-1.8-9 0-19.8 7.2-27 5.4-7.2 14.4-10.8 23.4-10.8H860.75c9 0 18 3.6 23.4 10.8 5.4 7.2 9 16.2 7.2 27-21.6 115.2-90 209.7-190.8 270-38.25 23.85-116.55 50.85-202.05 50.85zM512 362.4c-113.4 0-207 93.6-207 207S398.6 776.4 512 776.4s207-93.6 207-207S625.4 362.4 512 362.4zM512 391.65c-98.1 0-177.75 79.65-177.75 177.75S413.9 747.15 512 747.15s177.75-79.65 177.75-177.75-79.65-177.75-177.75-177.75zM512 735.9c91.8 0 166.5-74.7 166.5-166.5S603.8 402.9 512 402.9s-166.5 74.7-166.5 166.5 74.7 166.5 166.5 166.5m0 22.5c-104.4 0-189-84.6-189-189s84.6-189 189-189 189 84.6 189 189S616.4 758.4 512 758.4z"  horiz-adv-x="1024" />

    
    <glyph glyph-name="yemian-copy-copy-copy-copy" unicode="&#58889;" d="M562.805 815.3025a72.135 72.135 0 0 1-96.93 0L73.925 443.13a36.1575 36.1575 0 0 1 48.42-53.7075l6.2325 5.9175V6.899999999999977a72.315 72.315 0 0 1 72.315-72.405h210.4425v217.71a50.9175 50.9175 0 0 0 50.94 50.985h99.0225a50.9175 50.9175 0 0 0 50.94-50.985v-217.71h215.4375a72.315 72.315 0 0 1 72.3375 72.405V390.5925c16.065-14.535 38.8575-13.4325 52.2225 1.4625a36.1575 36.1575 0 0 1-2.61 51.075L562.805 815.28z"  horiz-adv-x="1024" />

    
    <glyph glyph-name="gengduo2" unicode="&#59213;" d="M512-128A512 512 0 1 0 1024 384 512 512 0 0 0 512-128z m0 979.478261A467.478261 467.478261 0 1 1 979.478261 384 467.478261 467.478261 0 0 1 512 851.478261zM430.569739 92.827826l-31.476869 31.610435 259.517217 259.561739-259.517217 259.561739 31.476869 31.610435 283.336348-283.603478-7.613217-7.568696 7.613217-7.568696z"  horiz-adv-x="1024" />

    
    <glyph glyph-name="shoucang" unicode="&#58891;" d="M773.458-109.43c-14.403 0-30.592 4.132-45.599 11.638L513.567 9.39 297.948-97.618c-13.655-7.27-29.286-11.09-45.225-11.09a96.164 96.164 0 0 0-57.549 18.842c-30.177 22.64-45.64 61.85-38.502 97.561l44.099 228.772L31.744 394.004a104.059 104.059 0 0 0-26.281 100.66l0.338 1.162c12.288 36.828 42.772 62.633 79.734 67.584l234.839 42.7L425.779 820.189c16.932 33.895 51.37 55.675 87.788 55.675 37.99 0 73.318-22.6 88.13-56.29l105.068-213.4L941.64 565.11a95.672 95.672 0 0 0 78.264-68.373 98.97 98.97 0 0 0-24.474-101.002l-0.578-0.579-168.55-158.72L868.9 7.255c6.86-36.649-7.716-73.672-38.062-96.742a90.409 90.409 0 0 0-57.38-19.943zM513.644 90.127L738.62-22.39c6.605-3.328 14.219-5.422 19.43-5.422 8.019 0 15.468 2.468 20.937 7.03l1.018 0.84c12.785 9.594 19.016 24.837 16.22 39.767l-45.276 243.89 179.078 168.638c10.987 11.147 14.75 27.11 9.876 41.79l-0.492 1.54a36.884 36.884 0 0 1-30.607 26.686l-1.019 0.159L660 545.843 548.485 772.357c-5.417 12.657-20.106 21.842-34.944 21.842-14.577 0-28.518-9.124-35.584-23.22L367.16 545.947l-249.088-45.251c-15.13-1.9-26.88-11.945-32.312-27.617-3.85-14.32 0.712-31.57 11.238-42.332L276.28 263.68l-47.052-244.02c-2.827-14.11 3.855-30.35 16.215-39.623 6.195-4.66 14.223-7.23 22.645-7.23 6.492 0 12.713 1.511 18.079 4.399l0.773 0.45 226.704 112.471z"  horiz-adv-x="1024" />

    
    <glyph glyph-name="shoucang1" unicode="&#58899;" d="M773.12-102.4c-15.36 0-28.16 5.12-33.28 10.24L512 25.6l-230.4-117.76c-23.04-12.8-53.76-10.24-74.24 5.12-23.04 17.92-33.28 46.08-28.16 74.24l48.64 256-181.76 174.08c-17.92 20.48-25.6 51.2-20.48 76.8 10.24 28.16 30.72 48.64 58.88 51.2l250.88 48.64 112.64 238.08C460.8 855.04 486.4 870.4 512 870.4c28.16 0 53.76-17.92 64-40.96l112.64-238.08 250.88-46.08c25.6-2.56 48.64-23.04 56.32-51.2 7.68-25.6 2.56-56.32-17.92-76.8l-181.76-176.64 46.08-256c5.12-28.16-5.12-56.32-28.16-74.24-10.24-7.68-25.6-12.8-40.96-12.8zM245.76-25.6zM102.4 468.48l207.36-202.24L256-20.48l253.44 130.56 250.88-130.56-51.2 286.72 207.36 202.24-286.72 51.2L512 783.36l-122.88-258.56L102.4 468.48z m824.32 2.56s0-2.56 0 0z m-5.12 2.56zM504.32 796.16z"  horiz-adv-x="1024" />

    
    <glyph glyph-name="gouwuche1" unicode="&#58892;" d="M357.44 129.60000000000002q18.24 0 34.56-6.72t28.8-18.72 19.2-28.32 6.72-34.56-6.72-34.56-19.2-28.32-28.8-19.2-34.56-7.2q-19.2 0-35.04 7.2t-28.32 19.2-19.2 28.32-6.72 34.56 6.72 34.56 19.2 28.32 28.32 18.72 35.04 6.72zM756.8 127.67999999999995q18.24 0 35.04-6.72t28.8-18.72 19.2-28.32 7.2-34.56-7.2-34.56-19.2-28.32-28.8-19.2-35.04-7.2-34.56 7.2-28.32 19.2-19.2 28.32-7.2 34.56 7.2 34.56 19.2 28.32 28.32 18.72 34.56 6.72zM918.08 672.96q26.88 0 41.76-7.2t21.12-17.76 5.76-22.56-3.36-20.64-12-35.52-20.64-59.04-22.56-63.84-16.8-49.92q-12.48-38.4-31.68-53.28t-47.04-14.88l-32.64 0-62.4 0-81.6 0-89.28 0-238.08 0 14.4-86.4 483.84 0q46.08 0 46.08-39.36 0-19.2-9.12-33.12t-36-13.92l-46.08 0-89.28 0-110.4 0-112.32 0-92.16 0-52.8 0q-19.2 0-32.16 8.64t-21.6 22.56-13.92 30.24-8.16 30.72q-0.96 5.76-5.28 27.84t-10.56 55.2-13.92 73.92-15.36 82.08q-18.24 96.96-41.28 216l-72 0q-14.4 0-24 7.2t-15.84 17.28-8.64 21.6-2.4 21.12q0 19.2 12.96 31.68t35.04 12.48l21.12 0 19.2 0 24 0 32.64 0q19.2 0 30.72-5.76t18.24-14.4 9.6-18.24 4.8-16.32q1.92-7.68 3.84-21.6t3.84-28.32q2.88-17.28 5.76-36.48l656.64 0z"  horiz-adv-x="1024" />

    
    <glyph glyph-name="shanchu" unicode="&#58913;" d="M733.855 104.055c0-26.574-21.63-48.203-48.202-48.203H338.347c-26.573 0-48.202 21.63-48.202 48.203V615.743h443.71v-511.688zM386.55 702.26c0 5.562 4.326 9.888 9.888 9.888H628.18c5.562 0 9.888-4.326 9.888-9.888v-29.045H386.55V702.26z m491.913-29.045H695.54V702.26c0 37.08-30.28 67.36-67.36 67.36H396.438c-37.08 0-67.36-30.28-67.36-67.36v-29.045h-183.54c-16.068 0-29.046-12.978-29.046-29.045s12.978-29.045 29.045-29.045h86.518v-511.07c0-58.709 47.584-106.293 106.292-106.293h347.306c58.708 0 106.292 47.584 106.292 106.293V615.743h86.518c16.067 0 29.045 12.977 29.045 29.045s-12.978 28.427-29.045 28.427zM512 142.987c16.068 0 29.045 12.978 29.045 29.046v308.99c0 16.068-12.977 29.045-29.045 29.045s-29.045-12.977-29.045-29.045v-308.99c0-16.068 12.977-29.046 29.045-29.046m-135.338 0c16.068 0 29.045 12.978 29.045 29.046v308.99c0 16.068-12.977 29.045-29.045 29.045s-29.045-12.977-29.045-29.045v-308.99c0.618-16.068 13.596-29.046 29.045-29.046m270.676 0c16.067 0 29.045 12.978 29.045 29.046v308.99c0 16.068-12.978 29.045-29.045 29.045s-29.045-12.977-29.045-29.045v-308.99c0-16.068 12.977-29.046 29.045-29.046"  horiz-adv-x="1024" />

    
    <glyph glyph-name="zuji3" unicode="&#58904;" d="M986.715081-47.786885C945.755192-97.148802 866.329767-128 769.575158-128c-113.558666 0-250.748036 42.403987-377.697435 146.904216-188.389232 154.912399-251.273163 380.060505-115.002764 544.031342 87.56489 105.419201 171.19133 136.926807 239.982937 136.926807 102.399722 0 171.716456-69.841861 171.716456-69.841861 105.550482-113.821229 2.363071-207.293796 95.704356-333.324222 71.942369-97.017172 109.751497-42.535269 195.872288-120.385314 49.361917-44.373213 64.590594-154.387273 6.564085-224.097853z m-49.230636 176.705161c-27.963001 25.337367-45.423466 30.063508-69.579298 36.627593-45.160903 12.340479-86.514637 27.831719-134.957582 93.078721-58.420354 78.637735-57.107537 149.267287-55.926002 205.980979 0.918972 51.331143 1.444099 82.444904-35.314776 122.091976-0.131282 0-52.643959 49.361917-124.848891 49.361917-63.934185 0-127.999652-38.334255-190.752302-113.821229-44.504494-53.43165-63.671622-115.002764-57.238819-182.744119 8.927155-94.128975 68.660326-192.852809 163.576991-270.965417 139.946286-115.265328 271.359262-132.46323 337.262674-132.46323 74.436721 0 138.633469 21.792761 167.909287 56.976255 37.15272 44.767058 21.924043 115.921736-0.131282 135.876554zM64.198614 255.998956a63.999826 63.999826 0 1 0 63.934185 63.934186 63.934185 63.934185 0 0 0-63.934185-63.934186z m0 191.933838a64.065467 64.065467 0 1 0 63.934185 64.065467 63.960442 63.960442 0 0 0-63.934185-64.065467z m142.965765 162.001611a79.03158 79.03158 0 1 0 79.03158 79.03158 79.03158 79.03158 0 0 0-79.03158-79.03158z m0 93.997693a14.966113 14.966113 0 1 1 14.966113-14.966113 15.044882 15.044882 0 0 1-14.966113 14.966113z m209.000457 0a96.03256 96.03256 0 1 0 95.966919 95.966918 96.03256 96.03256 0 0 0-95.966919-95.966918z m0 127.999652a32.032733 32.032733 0 1 1 31.901452-32.032734 32.072118 32.072118 0 0 1-31.901452 32.032734z"  horiz-adv-x="1024" />

    
    <glyph glyph-name="ziyuan" unicode="&#58933;" d="M1325.176471 775.529412v-602.352941h-474.051765l-34.936471-35.538824L722.823529 43.06823499999996l-93.364705 94.569412-34.936471 35.538824H120.470588V775.529412h1204.705883m120.470588 120.470588H0v-843.294118h542.117647l180.705882-180.705882 180.705883 180.705882h542.117647V896z"  horiz-adv-x="1445" />

    
    <glyph glyph-name="yuanxing3" unicode="&#59066;" d="M511.6 70.2c172.9 0 314.3 141.3 314.3 314s-141.5 314-314.3 314c-172.9 0-314.3-141.3-314.3-314s141.4-314 314.3-314z m0-52.3c-204.3 0-366.7 162.2-366.7 366.3 0 204.1 162.4 366.3 366.7 366.3 204.3 0 366.7-162.2 366.7-366.3 0-204.1-162.4-366.3-366.7-366.3z m0 0"  horiz-adv-x="1024" />

    
    <glyph glyph-name="zhengyuanhux" unicode="&#59139;" d="M967.111111 213.333333h56.888889a512 512 0 0 1-1024 0h56.888889a455.111111 455.111111 0 1 0 910.222222 0z m0 0h56.888889a512 512 0 0 1-1024 0h56.888889a455.111111 455.111111 0 1 0 910.222222 0z"  horiz-adv-x="1024" />

    
    <glyph glyph-name="lingdang" unicode="&#58905;" d="M845.452427 582.416918c-18.324797 43.143443-44.517803 78.487395-77.880385 111.827071a363.060033 363.060033 0 0 1-115.262971 77.880386q-8.784449 3.722224-17.694882 6.986329A357.654218 357.654218 0 0 1 559.390899 797.504218q-3.332822 0.446667-6.688551 0.824616h-82.644832c-1.843933-0.206154-3.687865-0.435214-5.531798-0.675727a357.333534 357.333534 0 0 1-76.402949-18.622574q-8.910432-3.264104-17.694882-6.986329a363.060033 363.060033 0 0 1-115.262971-77.880386c-33.339677-33.339677-59.555589-68.717987-77.880385-111.827071a358.478834 358.478834 0 0 1-28.632495-140.952045V135.52094h13.308384l69.336449 69.33645V441.464873c0 123.337334 80.170985 224.868161 191.070363 262.147669a280.472465 280.472465 0 0 0 178.0254 0c110.933738-37.279508 191.070364-138.810334 191.070363-262.147669v-235.462184L861.944744 135.52094h12.163084V441.464873a358.478834 358.478834 0 0 1-28.655401 140.952045zM512.525232 896a123.761095 123.761095 0 0 1-122.547078-140.642814 426.498188 426.498188 0 0 0 76.150983 14.751461A47.529941 47.529941 0 1 0 560.627823 777.461472a46.544983 46.544983 0 0 0-0.68718-8.017099 425.284171 425.284171 0 0 0 74.914059-15.564624A125.731011 125.731011 0 0 1 636.217609 772.307623 123.692377 123.692377 0 0 1 512.525232 896zM603.267334 45.614907a93.605352 93.605352 0 0 0-1.1453-14.316247h-182.675316a93.605352 93.605352 0 0 0-1.1453 14.316247A92.18518 92.18518 0 0 0 448.388444 113.760244h124.952207a92.18518 92.18518 0 0 0 29.926683-68.145337zM448.388444 113.760244a92.18518 92.18518 0 0 1-29.983949-68.145337 93.605352 93.605352 0 0 1 1.1453-14.316247H103.080557a66.656448 66.656448 0 0 0-35.355404 10.078638 63.621403 63.621403 0 0 0-3.768036 2.531112c-0.400855 0.286325-0.813163 0.584103-1.202565 0.893334s-0.984958 0.744445-1.465984 1.1453c-0.297778 0.22906-0.595556 0.469573-0.881881 0.721539s-0.423761 0.34359-0.629915 0.526838-0.652821 0.549744-0.984957 0.847521l-0.332137 0.297778-1.225471 1.1453c-0.45812 0.435214-0.91624 0.870428-1.362907 1.317095-0.767351 0.755898-1.511796 1.534702-2.290599 2.2906s-1.443078 1.614873-2.130258 2.439488c-0.34359 0.412308-0.68718 0.836069-1.019317 1.25983s-0.664274 0.847522-0.984958 1.282736-0.469573 0.629915-0.698633 0.950598-0.251966 0.332137-0.366496 0.503932c-0.274872 0.389402-0.549744 0.778804-0.813162 1.1453s-0.607009 0.893334-0.904787 1.351454l-0.80171 1.340001c-0.286325 0.469573-0.561197 0.927693-0.824616 1.397265s-0.538291 0.950599-0.80171 1.420172c-0.526838 0.950599-1.03077 1.912651-1.488889 2.897609s-0.939146 1.992822-1.362907 3.012138c-0.217607 0.492479-0.412308 0.984958-0.607009 1.477437s-0.400855 1.019317-0.595556 1.534701-0.412308 1.1453-0.607009 1.71795-0.412308 1.236924-0.595556 1.866839c-0.137436 0.446667-0.263419 0.881881-0.377949 1.328548s-0.274872 0.939146-0.389402 1.408718c-0.332137 1.271283-0.618462 2.554019-0.870428 3.848208-0.125983 0.584103-0.22906 1.1453-0.320683 1.763761v0.34359c-0.11453 0.664274-0.217607 1.328548-0.297778 1.992822-0.194701 1.408719-0.332137 2.82889-0.423761 4.260515 0 0.526838-0.068718 1.065129-0.091624 1.60342s0 0.744445 0 1.1453v1.889744A66.736619 66.736619 0 0 0 37.87864 113.760244zM987.824644 98.298697v-2.71436c0-0.57265 0-1.1453-0.091624-1.695044v-0.103077c0-0.721539-0.103077-1.443078-0.183248-2.164617s-0.148889-1.454531-0.251966-2.187522-0.194701-1.397266-0.309231-2.095899v-0.286325c-0.091624-0.561197-0.194701-1.1453-0.309231-1.660684 0-0.137436 0-0.274872-0.080171-0.412308-0.125983-0.664274-0.274872-1.317095-0.423761-1.958463s-0.22906-0.962052-0.355043-1.443078c0-0.194701-0.091624-0.389402-0.148889-0.584103l-0.206153-0.755897c-0.125983-0.45812-0.251966-0.91624-0.400855-1.362907q-0.251966-0.858975-0.549744-1.71795c-0.148889-0.446667-0.297778-0.881881-0.45812-1.317095l-0.481026-1.305641-0.618462-1.569061c-0.217607-0.526838-0.435214-1.042223-0.664274-1.557608-0.664274-1.557608-1.408719-3.080856-2.210428-4.581199-0.400855-0.744445-0.813163-1.477437-1.236924-2.210429s-0.858975-1.443078-1.305642-2.153163-0.881881-1.362907-1.351454-2.027181a0.309231 0.309231 0 0 0-0.068718-0.11453c-0.469573-0.675727-0.950599-1.351454-1.443077-2.004274v-0.057265c-0.492479-0.652821-0.996411-1.305642-1.500343-1.935557s-1.065129-1.294189-1.614873-1.924104-1.042223-1.1453-1.580514-1.752308a2.737266 2.737266 0 0 0-0.251966-0.263419c-0.412308-0.45812-0.847522-0.904787-1.294188-1.340001a4.168891 4.168891 0 0 0-0.389402-0.389402c-0.57265-0.57265-1.1453-1.1453-1.729403-1.660685s-1.065129-0.962052-1.614873-1.431624l-1.065128-0.904787-0.778804-0.629915-0.962052-0.755898c-0.22906-0.183248-0.45812-0.366496-0.698633-0.526838-0.423761-0.332137-0.858975-0.652821-1.294189-0.962052s-1.053676-0.744445-1.591966-1.1453-1.317095-0.881881-1.992822-1.294188A66.656448 66.656448 0 0 0 920.824606 31.29866H602.167846a93.605352 93.605352 0 0 1 1.1453 14.316247 92.18518 92.18518 0 0 1-30.02976 68.145337h412.743137a66.736619 66.736619 0 0 0 1.798121-15.461547zM148.652036 238.826981v-91.406376a67.022944 67.022944 0 0 1-90.375606 0.698633h-0.332137zM231.296869 284.982563v-80.170985L140.199724 113.760244l-70.802433-70.802433c-0.549744-0.538291-1.1453-1.065129-1.672138-1.580513a63.621403 63.621403 0 0 0-3.768036 2.531112c-0.400855 0.286325-0.813163 0.584103-1.202565 0.893334s-0.984958 0.744445-1.465984 1.1453c-0.297778 0.22906-0.595556 0.469573-0.881881 0.721539s-0.423761 0.34359-0.629915 0.526838-0.652821 0.549744-0.984957 0.847521l-0.332137 0.297778-1.225471 1.1453c-0.45812 0.435214-0.91624 0.870428-1.362907 1.317095-0.767351 0.755898-1.511796 1.534702-2.290599 2.2906s-1.443078 1.614873-2.130258 2.439488c-0.34359 0.412308-0.68718 0.836069-1.019317 1.25983s-0.664274 0.847522-0.984958 1.282736-0.469573 0.629915-0.698633 0.950598-0.251966 0.332137-0.366496 0.503932c-0.274872 0.389402-0.549744 0.778804-0.813162 1.1453s-0.607009 0.893334-0.904787 1.351454l-0.80171 1.340001c-0.286325 0.469573-0.561197 0.927693-0.824616 1.397265s-0.538291 0.950599-0.80171 1.420172c-0.515385 0.950599-1.019317 1.924104-1.488889 2.897609s-0.939146 1.992822-1.362907 3.012138c-0.217607 0.492479-0.412308 0.984958-0.607009 1.477437s-0.400855 1.019317-0.595556 1.534701-0.412308 1.1453-0.607009 1.71795-0.412308 1.236924-0.595556 1.866839c-0.137436 0.446667-0.263419 0.881881-0.377949 1.328548s-0.274872 0.939146-0.389402 1.408718c-0.332137 1.271283-0.618462 2.554019-0.870428 3.848208-0.125983 0.584103-0.22906 1.1453-0.320683 1.763761v0.34359c-0.11453 0.664274-0.217607 1.328548-0.297778 1.992822-0.194701 1.408719-0.332137 2.82889-0.423761 4.260515 0 0.526838-0.068718 1.065129-0.091624 1.60342s0 0.744445 0 1.1453v1.889744a67.000038 67.000038 0 0 0 112.571516 49.121908V238.826981l37.359679 37.359679a41.230792 41.230792 0 0 0 45.159171 8.795903zM970.645147 143.434962v-0.34359a67.000038 67.000038 0 0 1-96.537319 3.241198V239.972281zM987.824644 98.298697v-2.71436c0-0.57265 0-1.1453-0.091624-1.695044v-0.103077c0-0.721539-0.103077-1.443078-0.183248-2.164617s-0.148889-1.454531-0.251966-2.187522-0.194701-1.397266-0.309231-2.095899v-0.286325c-0.091624-0.561197-0.194701-1.1453-0.309231-1.660684 0-0.137436 0-0.274872-0.080171-0.412308-0.125983-0.664274-0.274872-1.317095-0.423761-1.958463s-0.22906-0.962052-0.355043-1.443078c0-0.194701-0.091624-0.389402-0.148889-0.584103l-0.206153-0.755897c-0.125983-0.45812-0.251966-0.91624-0.400855-1.362907q-0.251966-0.858975-0.549744-1.71795c-0.148889-0.446667-0.297778-0.881881-0.45812-1.317095l-0.481026-1.305641-0.618462-1.569061a73.284298 73.284298 0 0 0-2.874702-6.138807c-0.400855-0.744445-0.813163-1.477437-1.236924-2.210429s-0.858975-1.443078-1.305642-2.153163-0.881881-1.362907-1.351454-2.027181a0.309231 0.309231 0 0 0-0.068718-0.11453c-0.469573-0.675727-0.950599-1.351454-1.443077-2.004274v-0.057265c-0.492479-0.652821-0.996411-1.305642-1.500343-1.935557s-1.065129-1.294189-1.614873-1.924104-1.042223-1.1453-1.580514-1.752308a2.737266 2.737266 0 0 0-0.251966-0.263419c-0.412308-0.45812-0.847522-0.904787-1.294188-1.340001a4.168891 4.168891 0 0 0-0.389402-0.389402c-0.57265-0.57265-1.1453-1.1453-1.729403-1.660685s-1.065129-0.962052-1.614873-1.431624l-1.065128-0.904787-0.778804-0.629915-0.962052-0.755898c-0.22906-0.183248-0.45812-0.366496-0.698633-0.526838-0.423761-0.332137-0.858975-0.652821-1.294189-0.962052s-1.053676-0.744445-1.591966-1.1453-1.317095-0.881881-1.992822-1.294188c-0.57265 0.515385-1.1453 1.042223-1.672138 1.580513L883.70544 113.760244l-92.242445 92.242445v78.475942a41.230792 41.230792 0 0 0 46.430454-8.291971l36.214379-36.214379v-93.639711A66.988585 66.988585 0 0 0 987.824644 98.298697zM170.080595 98.298697a67.011491 67.011491 0 0 0-102.355442-56.921399 63.621403 63.621403 0 0 0-3.768036 2.531112c-0.400855 0.286325-0.813163 0.584103-1.202565 0.893334s-0.984958 0.744445-1.465984 1.1453c-0.297778 0.22906-0.595556 0.469573-0.881881 0.721539s-0.423761 0.34359-0.629915 0.526838-0.652821 0.549744-0.984957 0.847521l-0.332137 0.297778-1.225471 1.1453c-0.45812 0.435214-0.91624 0.870428-1.362907 1.317095-0.767351 0.755898-1.511796 1.534702-2.290599 2.2906s-1.443078 1.614873-2.130258 2.439488c-0.34359 0.412308-0.68718 0.836069-1.019317 1.25983s-0.664274 0.847522-0.984958 1.282736-0.469573 0.629915-0.698633 0.950598-0.251966 0.332137-0.366496 0.503932c-0.274872 0.389402-0.549744 0.778804-0.813162 1.1453s-0.607009 0.893334-0.904787 1.351454l-0.80171 1.340001c-0.286325 0.469573-0.561197 0.927693-0.824616 1.397265s-0.538291 0.950599-0.80171 1.420172c-0.515385 0.950599-1.019317 1.924104-1.488889 2.897609s-0.939146 1.992822-1.362907 3.012138c-0.217607 0.492479-0.412308 0.984958-0.607009 1.477437s-0.400855 1.019317-0.595556 1.534701-0.412308 1.1453-0.607009 1.71795-0.412308 1.236924-0.595556 1.866839c-0.137436 0.446667-0.263419 0.881881-0.377949 1.328548s-0.274872 0.939146-0.389402 1.408718c-0.332137 1.271283-0.618462 2.554019-0.870428 3.848208-0.125983 0.584103-0.22906 1.1453-0.320683 1.763761v0.34359c-0.11453 0.664274-0.217607 1.328548-0.297778 1.992822-0.194701 1.408719-0.332137 2.82889-0.423761 4.260515 0 0.526838-0.068718 1.065129-0.091624 1.60342s0 0.744445 0 1.1453v1.889744A67.011491 67.011491 0 0 0 158.799392 135.52094q0.629915-0.939146 1.236924-1.924103L140.199724 113.760244h28.08275a66.736619 66.736619 0 0 0 1.798121-15.461547zM987.824644 98.298697v-2.71436c0-0.57265 0-1.1453-0.091624-1.695044v-0.103077c0-0.721539-0.103077-1.443078-0.183248-2.164617s-0.148889-1.454531-0.251966-2.187522-0.194701-1.397266-0.309231-2.095899v-0.286325c-0.091624-0.561197-0.194701-1.1453-0.309231-1.660684 0-0.137436 0-0.274872-0.080171-0.412308-0.125983-0.664274-0.274872-1.317095-0.423761-1.958463s-0.22906-0.962052-0.355043-1.443078c0-0.194701-0.091624-0.389402-0.148889-0.584103l-0.206153-0.755897c-0.125983-0.45812-0.251966-0.91624-0.400855-1.362907q-0.251966-0.858975-0.549744-1.71795c-0.148889-0.446667-0.297778-0.881881-0.45812-1.317095l-0.481026-1.305641-0.618462-1.569061a73.284298 73.284298 0 0 0-2.874702-6.138807c-0.400855-0.744445-0.813163-1.477437-1.236924-2.210429s-0.858975-1.443078-1.305642-2.153163-0.881881-1.362907-1.351454-2.027181a0.309231 0.309231 0 0 0-0.068718-0.11453c-0.469573-0.675727-0.950599-1.351454-1.443077-2.004274v-0.057265c-0.492479-0.652821-0.996411-1.305642-1.500343-1.935557s-1.065129-1.294189-1.614873-1.924104-1.042223-1.1453-1.580514-1.752308a2.737266 2.737266 0 0 0-0.251966-0.263419c-0.412308-0.45812-0.847522-0.904787-1.294188-1.340001a4.168891 4.168891 0 0 0-0.389402-0.389402c-0.57265-0.57265-1.1453-1.1453-1.729403-1.660685s-1.065129-0.962052-1.614873-1.431624l-1.065128-0.904787-0.778804-0.629915-0.962052-0.755898c-0.22906-0.183248-0.45812-0.366496-0.698633-0.526838-0.423761-0.332137-0.858975-0.652821-1.294189-0.962052s-1.053676-0.744445-1.591966-1.1453-1.317095-0.881881-1.992822-1.294188a67.022944 67.022944 0 0 0-100.557322 72.382946h28.082751l-19.836592 19.836593q0.607009 0.973505 1.236924 1.924103a67.939183 67.939183 0 0 0 9.002056 10.81163A66.988585 66.988585 0 0 0 987.824644 98.298697zM61.277115 148.119238v-97.350482h-5.405815c-0.767351 0.755898-1.511796 1.534702-2.290599 2.2906s-1.443078 1.614873-2.130258 2.439488c-0.34359 0.412308-0.68718 0.836069-1.019317 1.25983s-0.664274 0.847522-0.984958 1.282736-0.469573 0.629915-0.698633 0.950598-0.251966 0.332137-0.366496 0.503932c-0.274872 0.389402-0.549744 0.778804-0.813162 1.1453s-0.607009 0.893334-0.904787 1.351454l-0.80171 1.37436c-0.286325 0.469573-0.561197 0.927693-0.824616 1.397265s-0.538291 0.950599-0.80171 1.420172c-0.526838 0.950599-1.03077 1.912651-1.488889 2.897609s-0.939146 1.992822-1.362907 3.012138c-0.217607 0.492479-0.412308 0.984958-0.607009 1.477437s-0.400855 1.019317-0.595556 1.534701-0.412308 1.1453-0.607009 1.71795-0.412308 1.236924-0.595556 1.866839c-0.137436 0.446667-0.263419 0.881881-0.377949 1.328548s-0.274872 0.939146-0.389402 1.408718c-0.332137 1.271283-0.618462 2.554019-0.870428 3.848208-0.125983 0.584103-0.22906 1.1453-0.320683 1.763761v0.34359c-0.11453 0.664274-0.217607 1.328548-0.297778 1.992822-0.194701 1.408719-0.332137 2.82889-0.423761 4.260515 0 0.526838-0.068718 1.065129-0.091624 1.60342s0 0.744445 0 1.1453v1.889744A66.885508 66.885508 0 0 0 58.27643 148.119238zM987.824644 98.298697v-2.71436c0-0.57265 0-1.1453-0.091624-1.695044v-0.103077c0-0.721539-0.103077-1.443078-0.183248-2.164617s-0.148889-1.454531-0.251966-2.187522-0.194701-1.397266-0.309231-2.095899v-0.286325c-0.091624-0.561197-0.194701-1.1453-0.309231-1.660684 0-0.137436 0-0.274872-0.080171-0.412308-0.125983-0.664274-0.274872-1.317095-0.423761-1.958463s-0.22906-0.962052-0.355043-1.443078c0-0.194701-0.091624-0.389402-0.148889-0.584103l-0.206153-0.755897c-0.125983-0.45812-0.251966-0.91624-0.400855-1.362907q-0.251966-0.858975-0.549744-1.71795c-0.148889-0.446667-0.297778-0.881881-0.45812-1.317095l-0.481026-1.305641-0.618462-1.569061c-0.217607-0.526838-0.435214-1.042223-0.664274-1.557608H970.645147v71.684314a66.81679 66.81679 0 0 0 17.179497-44.792675zM670.427714 113.760244h-97.144328a92.18518 92.18518 0 0 0 29.983948-68.145337 93.605352 93.605352 0 0 0-1.1453-14.316247 92.482958 92.482958 0 0 0-182.721128 0 93.605352 93.605352 0 0 0-1.1453 14.316247A92.18518 92.18518 0 0 0 448.388444 113.760244h-97.201593A172.940268 172.940268 0 0 1 337.294364 45.614907q0-7.238295 0.584103-14.316247a173.524371 173.524371 0 0 1 345.880536 0q0.584103 7.077953 0.584103 14.316247a172.940268 172.940268 0 0 1-13.915392 68.145337z"  horiz-adv-x="1024" />

    
    <glyph glyph-name="fenlei1" unicode="&#59190;" d="M235.456 768m57.152 0l628.544 0q57.152 0 57.152-57.152l0 0q0-57.152-57.152-57.152l-628.544 0q-57.152 0-57.152 57.152l0 0q0 57.152 57.152 57.152ZM235.456 425.152m57.152 0l628.544 0q57.152 0 57.152-57.152l0 0q0-57.152-57.152-57.152l-628.544 0q-57.152 0-57.152 57.152l0 0q0 57.152 57.152 57.152ZM235.456 82.304m57.152 0l628.544 0q57.152 0 57.152-57.152l0 0q0-57.152-57.152-57.152l-628.544 0q-57.152 0-57.152 57.152l0 0q0 57.152 57.152 57.152ZM121.152 710.848m-64 0a64 64 0 1 1 128 0 64 64 0 1 1-128 0ZM121.152 368m-64 0a64 64 0 1 1 128 0 64 64 0 1 1-128 0ZM121.152 25.152m-64 0a64 64 0 1 1 128 0 64 64 0 1 1-128 0Z"  horiz-adv-x="1024" />

    
    <glyph glyph-name="yiwancheng1" unicode="&#59220;" d="M263.5776 842.09664V770.2528c0-39.7312 29.57312-71.8848 66.06848-71.8848h330.30144c36.4544 0 66.06848 32.19456 66.06848 71.8848V842.09664h49.5616c72.9088 0 132.096-64.3072 132.096-143.72864V15.7696c0-79.38048-59.14624-143.72864-132.13696-143.72864H214.05696C141.06624-128 81.92-63.6928 81.92 15.72864V698.368c0 79.38048 59.14624 143.7696 132.13696 143.7696h49.5616zM329.64608 896h330.30144c9.13408 0 16.50688-8.02816 16.50688-17.98144V770.2528a18.80064 18.80064 0 0 0-4.83328-12.6976 15.85152 15.85152 0 0 0-11.6736-5.28384H329.64608a15.85152 15.85152 0 0 0-11.6736 5.28384 18.80064 18.80064 0 0 0-4.83328 12.6976V877.9776c0 4.79232 1.72032 9.33888 4.83328 12.6976A15.85152 15.85152 0 0 0 329.64608 896z m132.87424-614.68672l-109.48608 119.11168a31.17056 31.17056 0 0 1-46.73536 0 38.21568 38.21568 0 0 1 0-50.7904l132.096-143.7696a31.1296 31.1296 0 0 1 45.95712-0.77824l264.23296 269.47584c8.6016 8.76544 12.288 21.87264 9.58464 34.4064a34.85696 34.85696 0 0 1-22.60992 26.2144 31.1296 31.1296 0 0 1-32.1536-8.192l-240.88576-245.67808z"  horiz-adv-x="1024" />

    
    <glyph glyph-name="index" unicode="&#58893;" d="M553.86203003 739.38230896a59.43740844 59.43740844 0 0 1-79.86785889 0L151.037323 432.72161865a29.79286193 29.79286193 0 0 1 39.89685059-44.25361633l5.13542175 4.87586975V73.27917479999996a59.58572388 59.58572388 0 0 1 59.58572388-59.65988159h173.39927672v179.38751221a41.95472717 41.95472717 0 0 0 41.97326661 42.01034546h81.59202576a41.95472717 41.95472717 0 0 0 41.97326659-42.01034546v-179.38751221h177.51502992a59.58572388 59.58572388 0 0 1 59.6042633 59.6598816V389.43205261c13.2371521-11.97647094 32.01759338-11.06803894 43.03001404 1.20506286a29.79286193 29.79286193 0 0 1-2.15057373 42.08450318L553.86203003 739.36376953z"  horiz-adv-x="1024" />

    
    <glyph glyph-name="shanchu1" unicode="&#59058;" d="M733.696 103.936c0-26.624-21.504-48.128-48.128-48.128H338.432c-26.624 0-48.128 21.504-48.128 48.128v512h443.904v-512h-0.512zM386.56 702.464c0 5.632 4.096 9.728 9.728 9.728h231.936c5.632 0 9.728-4.096 9.728-9.728v-29.184H386.56v29.184z m492.032-29.184h-182.784v29.184c0 36.864-30.208 67.584-67.584 67.584H396.288c-36.864 0-67.584-30.208-67.584-67.584v-29.184H145.408c-15.872 0-29.184-12.8-29.184-29.184 0-15.872 12.8-29.184 29.184-29.184h86.528v-510.976c0-58.88 47.616-106.496 106.496-106.496h347.136c58.88 0 106.496 47.616 106.496 106.496v512h86.528c15.872 0 29.184 12.8 29.184 29.184s-13.312 28.16-29.184 28.16zM512 142.848c15.872 0 29.184 12.8 29.184 29.184V480.768c0 15.872-12.8 29.184-29.184 29.184-15.872 0-29.184-12.8-29.184-29.184v-308.736c0-15.872 13.312-29.184 29.184-29.184m-135.168 0c15.872 0 29.184 12.8 29.184 29.184V480.768c0 15.872-12.8 29.184-29.184 29.184-15.872 0-29.184-12.8-29.184-29.184v-308.736c0.512-15.872 13.312-29.184 29.184-29.184m270.336 0c15.872 0 29.184 12.8 29.184 29.184V480.768c0 15.872-12.8 29.184-29.184 29.184-15.872 0-29.184-12.8-29.184-29.184v-308.736c0.512-15.872 13.312-29.184 29.184-29.184"  horiz-adv-x="1024" />

    
    <glyph glyph-name="dian--" unicode="&#58910;" d="M352 384a160 160 0 1 1 320 0 160 160 0 1 1-320 0z"  horiz-adv-x="1024" />

    
    <glyph glyph-name="yuanxing4" unicode="&#59056;" d="M514.124481 381.875519zM514.124481 381.875519zM514.124481-128c-135.966805 0-263.435685 50.987552-361.161825 148.713693S4.248963 245.908714 4.248963 381.875519s50.987552 263.435685 148.713693 361.161825S378.157676 891.751037 514.124481 891.751037s263.435685-50.987552 361.161826-148.713693 148.713693-225.195021 148.713693-361.161825-50.987552-263.435685-148.713693-361.161826c-97.726141-93.477178-225.195021-148.713693-361.161826-148.713693z m0 934.771784C399.40249 806.771784 293.178423 764.282158 212.448133 683.551867s-123.219917-186.954357-123.219917-301.676348 42.489627-220.946058 123.219917-301.676349 186.954357-123.219917 301.676348-123.219917 220.946058 42.489627 301.676349 123.219917c80.73029 80.73029 123.219917 186.954357 123.219917 301.676349S892.282158 602.821577 811.551867 683.551867s-186.954357 123.219917-297.427386 123.219917z"  horiz-adv-x="1028" />

    
    <glyph glyph-name="shoucang2" unicode="&#58960;" d="M985.407-126.833c-14.91 0-31.765 4.278-47.324 12.058L715.858-3.663l-223.652-110.853c-14.132-7.52-30.339-11.54-46.934-11.54-21.523-0.129-42.397 6.743-59.64 19.578-31.247 23.468-47.324 64.179-39.934 101.13l45.768 237.265-175.42 163.492c-27.098 27.487-37.47 67.29-27.228 104.371l0.39 1.167c12.705 38.248 44.34 64.956 82.718 70.142l243.618 44.342L624.84 837.526C642.345 872.662 678.13 895.222 715.858 895.222c39.414 0 76.106-23.467 91.405-58.344l108.909-221.447 243.618-42.656c38.637-5.575 70.402-33.321 81.163-70.92 12.058-36.951 2.204-77.403-25.412-104.76l-0.648-0.648-174.773-164.66 44.212-237.654c7.13-37.988-8.039-76.365-39.415-100.351-16.855-13.484-37.858-20.745-59.51-20.615z m-269.55 187.997l248.027-124.078c7.26-3.63 15.688-5.964 21.393-5.964 8.816 0 17.114 2.723 23.078 7.779l1.167 0.908c14.132 10.631 21.004 27.356 17.892 43.822l-49.916 268.9 197.461 185.923c12.058 12.317 16.207 29.82 10.891 46.027l-0.518 1.686c-4.409 15.688-17.633 27.227-33.71 29.43l-1.167 0.13-273.18 47.713-122.91 249.712c-5.964 14.002-22.17 24.115-38.507 24.115-16.077 0-31.376-10.113-39.285-25.542L554.44 563.57l-274.605-49.917c-16.726-2.074-29.691-13.225-35.655-30.468-4.279-15.818 0.778-34.747 12.447-46.676l197.59-184.237-51.86-269.03c-3.112-15.558 4.278-33.45 17.892-43.693 6.871-5.186 15.688-7.909 25.023-7.909 7.13 0 14.002 1.686 19.966 4.798l0.908 0.518 249.712 124.208z m0 0"  horiz-adv-x="1427" />

    
    <glyph glyph-name="bianji3" unicode="&#58915;" d="M850.408058 616.907298c-18.94266-0.511964-34.301573-15.870877-34.301574-35.325501v-562.648193c0-19.454624-15.358913-35.325501-34.301573-35.3255H166.424449c-18.94266 0.511964-34.301573 15.870877-34.301573 35.3255V722.371836c0 19.454624 15.358913 35.325501 34.301573 35.325501H645.110582c18.94266 0.511964 34.301573 15.870877 34.301574 35.325501 0.511964 18.94266-14.84695 34.813537-34.301574 35.3255H166.936413c-56.827979 0-102.392756-47.100668-102.392755-105.464538v-703.438232c0-58.363871 46.07674-105.464538 102.392755-105.464538h615.380462c56.316016 0 102.392756 47.100668 102.392756 105.464538V581.581797c0.511964 18.94266-14.84695 34.813537-34.301573 35.325501 0-0.511964 0-0.511964 0 0zM945.121357 885.688282c-12.799094 13.311058-33.789609 13.823022-47.100668 1.023927l-1.023928-1.023927-339.943948-349.671261c-13.311058-13.823022-13.311058-35.837464 0-49.660487 12.799094-13.311058 34.301573-13.823022 47.612631-1.023927l1.023927 1.023927 339.943949 349.671261c12.799094 13.823022 12.799094 35.837464-0.511963 49.660487zM440.325071 546.256296H235.027596c-18.94266 0-34.301573-15.870877-34.301573-35.3255 0-19.454624 15.358913-35.325501 34.301573-35.325501H440.325071c18.94266 0.511964 34.301573 15.870877 34.301573 35.325501 0 19.454624-15.358913 35.325501-34.301573 35.3255z m-239.599048-246.254577c0-19.454624 15.358913-35.325501 34.301573-35.325501H645.110582c18.94266 0 34.301573 15.870877 34.301574 35.325501 0.511964 18.94266-14.84695 34.813537-34.301574 35.325501H235.027596c-18.94266-0.511964-34.301573-15.870877-34.301573-35.325501z"  horiz-adv-x="1024" />

    
    <glyph glyph-name="daifahuo1" unicode="&#58920;" d="M319.2 202.4h-6.4c-45.6-2.4-82.4-40.8-80.8-86.4 0.8-45.6 40.8-82.4 86.4-81.6 44 2.4 79.2 36.8 81.6 81.6 1.6 45.6-33.6 84-80.8 86.4zM788 117.6m-83.2 0a83.2 83.2 0 1 1 166.4 0 83.2 83.2 0 1 1-166.4 0ZM285.6 359.2c104 0 189.6 82.4 189.6 184 0 106.4-83.2 189.6-189.6 189.6-102.4 0-184-85.6-184-189.6 0-99.2 84-184 184-184zM275.2 672c0 0.8 0.8 2.4 2.4 2.4h16c0.8 0 2.4-0.8 2.4-2.4l5.6-136.8 72.8-54.4c0.8-0.8 0.8-2.4 0.8-3.2l-7.2-10.4c0-0.8-2.4-0.8-3.2-0.8l-92 48.8c-0.8 0-0.8 0.8-2.4 2.4-0.8 0-0.8 0.8-0.8 3.2l5.6 151.2zM947.2 403.2L872 536.8c-16 18.4-26.4 33.6-50.4 33.6H704.8V671.2c0 18.4-14.4 33.6-33.6 33.6H422.4c44.8-38.4 72.8-96 72.8-160.8 0-113.6-93.6-205.6-210.4-205.6-80 0-151.2 48.8-184 116.8V168c0-18.4 14.4-33.6 33.6-33.6h66.4c8 58.4 58.4 102.4 117.6 102.4 60.8 0 109.6-44.8 117.6-102.4h234.4c8 58.4 58.4 102.4 117.6 102.4 60.8 0 109.6-44.8 117.6-102.4h33.6c18.4 0 33.6 14.4 33.6 33.6V336c-0.8 32-25.6 67.2-25.6 67.2z m-82.4-64c0-7.2-5.6-13.6-13.6-13.6H758.4V498.4h46.4c9.6 0 13.6-5.6 20-13.6l29.6-52.8s9.6-14.4 9.6-27.2v-65.6z"  horiz-adv-x="1024" />

    
    <glyph glyph-name="fanhui" unicode="&#58894;" d="M960 608c0-9-3.2-18.1-9.6-25L535.2 135c-12.8-13.8-33.6-13.8-46.4 0L73.6 583c-12.8 13.8-12.8 36.2 0 50 12.8 13.8 33.6 13.8 46.4 0L512 209.99999999l392 423.00000001c12.8 13.8 33.6 13.8 46.4 0 6.4-6.9 9.6-16 9.6-25z"  horiz-adv-x="1024" />

    
    <glyph glyph-name="daifahuo2" unicode="&#58916;" d="M1021.629 308.691l-4.016 8.45c-1.663 4.69-3.788 9.167-6.377 13.14l-96.305 202.712-35.198 63.862H737.828v70.951c0 32.657-14.642 47.3-47.3 47.3h-70.953c1.897-11.964 0.74-19.586 0.74-31.78 0-37.117-7.3-72.59-21.759-105.456-14.18-32.428-33.58-60.6-57.97-84.81-24.614-24.434-53.485-43.697-85.867-57.3-33.162-13.86-68.175-20.901-104.853-20.901-37.136 0-72.615 7.041-105.504 20.902-32.657 13.602-61.525 32.865-86.145 57.3-24.347 24.438-43.745 52.842-57.974 84.578-14.414 32.868-21.756 68.34-21.756 105.69 0 2.352 0 4.94 0.229 7.273-2.129-4.92-3.094-10.324-3.094-15.96v-544.69c0-21.617 11.825-40.419 29.104-50.744a181.385 181.385 0 0 0 163.981 103.126c75.709 0 134.463-40.463 161.671-105.783h189.196c27.205 64.835 82.127 104.832 157.143 104.832 75.017 0 123.103-39.997 150.31-104.832h47.303c32.658 0 46.096 20.512 46.096 52.916V299.059c0 2.818-0.23 5.64-0.691 8.453l1.894 1.18z m-307.452 51.665v165.55h118.25l47.306-165.55H714.177z m65.176-230.638c-67.208 0-121.626-54.273-121.626-120.975 0-66.703 54.418-120.978 121.626-120.978 67.161 0 121.623 54.274 121.623 120.978 0 66.702-54.462 120.975-121.623 120.975z m-506.859 0c-67.209 0-121.625-54.273-121.625-120.975 0-66.703 54.415-120.978 121.625-120.978 67.213 0 121.855 54.274 121.855 120.978 0 66.702-54.646 120.975-121.855 120.975zM208.379 542.95c18.156-17.968 39.308-32.103 63.56-42.31 24.111-10.16 50.118-15.267 77.973-15.267 27.209 0 52.84 5.107 77.05 15.267 24.157 10.207 45.316 24.342 63.47 42.31 18.151 18.018 32.466 39.034 43.088 63.01 10.532 24.021 15.844 49.818 15.844 77.416 0 27.004-5.315 52.524-15.844 76.563-10.622 23.952-24.982 44.972-43.087 62.98-18.157 17.97-39.314 32.243-63.472 42.8C402.758 876.182 377.03 881.4 349.912 881.4c-27.855 0-53.862-5.222-77.973-15.682-24.246-10.552-45.404-24.828-63.56-42.799-18.109-18.01-32.47-39.028-43.002-62.98-10.627-24.039-15.892-49.565-15.892-76.563 0-27.598 5.265-53.395 15.892-77.415 10.531-23.977 24.897-44.995 43.002-63.011zM312.126 833.36h47.305v-141.907l118.165-0.101 0.084-23.544v-23.65l-165.482 0.249-0.072 188.953z"  horiz-adv-x="1063" />

    
    <glyph glyph-name="qianbao1" unicode="&#58912;" d="M1180.933333 722.933333C1180.933333 808.933333 1107.466667 882.666667 1021.733333 882.666667h-680C256 882.666667 182.533333 808.933333 182.533333 722.933333V44c0-86 73.466667-159.733333 159.2-159.733333H1018.666667c85.733333 0 159.2 73.733333 159.2 159.733333V212.933333H819.6c0 3.066667-137.866667-9.2-137.866667 162.8 0 184.4 150 172 150 172h349.2V722.933333z m0 0M723.333333 375.333333c0-129.6 105.466667-116.266667 105.466667-116.266666h310.533333V508.266667H837.866667c0-3.333333-114.533333 6.666667-114.533334-132.933334z m117.6 56.533334c21.066667 0 39.2-20 39.2-43.2 0-16.533333-9.066667-29.866667-21.066666-39.866667-12.266667-6.666667-26.933333-6.666667-39.2 0-12 6.666667-21.066667 23.333333-21.066667 39.866667 2.933333 23.333333 20.933333 43.2 42.133333 43.2z m0 0"  horiz-adv-x="1365" />

    
    <glyph glyph-name="shanchu2" unicode="&#58930;" d="M519.67 895.99999C415.134001 895.99999 330.077002 813.057991 326.493002 709.123992H82.587004a49.195 49.195 0 0 1-49.195999-49.15 49.195 49.195 0 0 1 49.195999-49.151999h54.315v-550.899995c0-103.421999 70.209999-187.899998 156.801998-187.899998h441.689996c86.593999 0 156.802998 83.965999 156.802998 187.899998V610.309993h49.195a49.195 49.195 0 0 1 49.195999 49.150999 49.195 49.195 0 0 1-49.195999 49.151H712.332998A192.663998 192.663998 0 0 1 519.692 895.99999zM411.817001 717.916992c3.562 50.064 46.902 89.040999 100.415999 89.040999 53.536999 0 96.877999-38.977 99.926999-89.040999H411.818001zM299.180002-38.424001c-31.164 0-65.444999 39.356-65.444999 95.585999V606.614993h578.769994V56.649998c0-56.229999-34.281-95.585999-65.445999-95.585999H299.180002v0.512zM367.297001 94.625998c24.487 0 44.52 21.815 44.52 49.106999V423.945995c0 27.291-20.033 49.107-44.52 49.106999s-44.52-21.816-44.519999-49.106999v-280.212998c0-27.292 19.477-49.107 44.519999-49.106999z m155.822999 0c24.486 0 44.52 21.815 44.519999 49.106999V423.945995c0 27.291-20.034 49.107-44.519999 49.106999s-44.521-21.816-44.521-49.106999v-280.212998c0-27.292 20.034-49.107 44.52-49.106999z m133.561999 0c24.487 0 44.52 21.815 44.519999 49.106999V423.945995c0 27.291-20.033 49.107-44.519999 49.106999s-44.52-21.816-44.52-49.106999v-280.212998c0-27.292 19.477-49.107 44.52-49.106999z"  horiz-adv-x="1024" />

    
    <glyph glyph-name="fanhui1" unicode="&#59059;" d="M736-64c-9 0-18.1 3.2-25 9.6L263 360.8c-13.8 12.8-13.8 33.6 0 46.4L711 822.4c13.8 12.8 36.2 12.8 50 0 13.8-12.8 13.8-33.6 0-46.4L338 384l423-392c13.8-12.8 13.8-33.6 0-46.4-6.9-6.4-16-9.6-25-9.6z"  horiz-adv-x="1024" />

    
    <glyph glyph-name="shanchu3" unicode="&#58895;" d="M799.2 21.6c0-34.4-28-62.4-62.4-62.4H287.2c-34.4 0-62.4 28-62.4 62.4V684h574.4v-662.4zM349.6 796c0 7.2 5.6 12.8 12.8 12.8h300c7.2 0 12.8-5.6 12.8-12.8v-37.6H349.6V796z m636.8-37.6H749.6V796c0 48-39.2 87.2-87.2 87.2h-300c-48 0-87.2-39.2-87.2-87.2v-37.6H37.6C16.8 758.4 0 741.6 0 720.8s16.8-37.6 37.6-37.6h112v-661.6c0-76 61.6-137.6 137.6-137.6h449.6c76 0 137.6 61.6 137.6 137.6V684h112c20.8 0 37.6 16.8 37.6 37.6s-16.8 36.8-37.6 36.8zM512 72c20.8 0 37.6 16.8 37.6 37.6v400c0 20.8-16.8 37.6-37.6 37.6s-37.6-16.8-37.6-37.6v-400c0-20.8 16.8-37.6 37.6-37.6m-175.2 0c20.8 0 37.6 16.8 37.6 37.6v400c0 20.8-16.8 37.6-37.6 37.6s-37.6-16.8-37.6-37.6v-400c0.8-20.8 17.6-37.6 37.6-37.6m350.4 0c20.8 0 37.6 16.8 37.6 37.6v400c0 20.8-16.8 37.6-37.6 37.6s-37.6-16.8-37.6-37.6v-400c0-20.8 16.8-37.6 37.6-37.6"  horiz-adv-x="1024" />

    
    <glyph glyph-name="gengduo3" unicode="&#58980;" d="M913.408 470.016c-47.616 0-86.016-38.4-86.016-86.016s38.4-86.016 86.016-86.016 86.016 38.4 86.016 86.016-38.4 86.016-86.016 86.016zM512 527.36c-79.36 0-143.36-64-143.36-143.36s64-143.36 143.36-143.36 143.36 64 143.36 143.36-64 143.36-143.36 143.36zM110.592 470.016c-47.616 0-86.016-38.4-86.016-86.016s38.4-86.016 86.016-86.016 86.016 38.4 86.016 86.016-38.4 86.016-86.016 86.016z"  horiz-adv-x="1024" />

    
    </font>
</defs>
</svg>
